<?xml version="1.0" encoding="utf-8"?>
<!-- Generator: Adobe Illustrator 15.0.2, SVG Export Plug-In . SVG Version: 6.00 Build 0)  -->
<!DOCTYPE svg PUBLIC "-//W3C//DTD SVG 1.1//EN" "http://www.w3.org/Graphics/SVG/1.1/DTD/svg11.dtd">
<svg version="1.1" id="Layer_1" xmlns="http://www.w3.org/2000/svg" xmlns:xlink="http://www.w3.org/1999/xlink" x="0px" y="0px"
	 width="482px" height="166px" viewBox="0 0 482 166" enable-background="new 0 0 482 166" xml:space="preserve">
<g>
	<defs>
		<rect id="SVGID_1_" y="-59" width="482" height="270"/>
	</defs>
	<clipPath id="SVGID_2_">
		<use xlink:href="#SVGID_1_"  overflow="visible"/>
	</clipPath>
	<path clip-path="url(#SVGID_2_)" fill="#4D4D4F" d="M329.613,91.685c0.115-0.107,0.115-0.33,0-0.473
		c-0.711-0.706-2.592-2.583-3.305-3.292c-0.122-0.113-0.299-0.113-0.443-0.02c-0.677,0.729-2.638,2.632-3.321,3.333
		c-0.087,0.138-0.087,0.324,0.015,0.43c0.694,0.71,2.61,2.645,3.307,3.319c0.145,0.107,0.321,0.107,0.443,0h0.034
		C327.021,94.308,328.902,92.388,329.613,91.685"/>
	<path clip-path="url(#SVGID_2_)" fill="#4D4D4F" d="M93.972,71.036c0-0.013,0.274-0.247,0.43-0.134
		c0.11,0.07,0.061,0.414,0.061,0.414c-0.384,2.752-1.716,12.766-2.413,25.788c-0.092,2.13-0.199,4.271-0.254,6.401l-0.023,0.729
		l0.422-0.553c1.777-2.356,4.944-3.691,8.698-3.707c2.366,0,8.037,0.781,9.332,8.011c0.424,2.543-0.134,8.436-5.463,12.71
		c-1.648,1.3-6.122,3.43-11.121,3.495c-4.298,0.086-8.671-0.199-11.455-2.503c-1.575-1.316-2.885-3.08-3.22-8.04
		c-0.024-0.401-0.052-0.906-0.052-1.396c0-0.596,0-0.858,0.052-1.331c0.027-0.299,0.064-0.408,0.206-0.393
		c0.063,0.025,0.153,0.228,0.224,0.411c0.085,0.248,0.198,0.545,0.383,0.812c2.374,4.67,10.551,5.368,13.318,5.32
		c5.749-0.102,8.115-1.819,9.853-4.349c0.998-1.447,1.383-3.201,1.063-4.765c-0.446-2.311-2.138-3.45-5.014-3.45
		c-4.13,0-7.261,3.29-7.261,7.63l-0.022,0.585l-0.022,1.292c0,0.338-0.042,0.424-0.136,0.443c-0.14,0.021-0.293-0.046-0.507-0.133
		l-5.154-3.004c-0.145-0.06-0.468-0.293-0.61-0.486c-0.159-0.213-0.159-0.428-0.159-0.749c0.044-4.567,0.111-9.754,0.264-13.044
		c0.343-6.537,0.872-12.96,1.608-19.171c0.07-0.428,0.172-0.844,0.272-1.075c0.11-0.185,0.446-0.547,0.671-0.727
		C87.943,76.093,93.972,71.036,93.972,71.036"/>
	<path clip-path="url(#SVGID_2_)" fill="#4D4D4F" d="M319.226,102.933c1.134-0.948,4.731-4.004,6.152-5.124
		c0.181-0.183,0.293-0.28,0.345-0.234c0.102,0.052,0.056,0.294,0.036,0.527c-0.228,4.708-0.346,9.429-0.346,14.013v0.653v4.07
		c0.118,2.092,0.454,3.311,1.078,3.808c0.705,0.588,2.059,1.176,4.653,0.784l0.324-0.032c0.108-0.026,0.327-0.053,0.37,0.032
		c0.036,0.13-0.332,0.325-0.533,0.404l-0.019,0.053c-2.039,1.012-3.801,1.553-5.42,1.644l-0.856,0.031
		c-1.507-0.075-2.98-0.734-4.111-1.767l-0.367-0.365c-0.173-0.16-0.351-0.352-0.484-0.601c-0.793-1.114-1.198-2.031-1.239-3.725
		c-0.055-1.669,0.015-10.557,0.095-13.229c0-0.193,0-0.478,0.049-0.633C319.049,103.092,319.049,103.092,319.226,102.933"/>
	<path clip-path="url(#SVGID_2_)" fill="#4D4D4F" d="M265.561,116.92c-1.579,1.192-3.551,1.716-5.409,1.425
		c-2.347-0.32-3.706-1.31-3.658-2.688c0.056-1.473,1.15-2.282,3.242-2.397c1.541-0.107,3.479,1.016,5.825,3.292l0.206,0.19
		L265.561,116.92z M316.01,107.985c-1.297-7.229-6.956-8.012-9.356-8.012c-3.747,0.017-6.907,1.352-8.657,3.707l-0.446,0.554
		l0.032-0.729c0.072-2.13,0.117-4.271,0.258-6.402c0.68-13.021,2.026-23.036,2.406-25.787c0,0,0.051-0.344-0.095-0.415
		c-0.145-0.113-0.405,0.121-0.405,0.134c0,0-6.036,5.057-6.013,5.033c-0.185,0.181-0.59,0.542-0.658,0.727
		c-0.139,0.231-0.241,0.647-0.298,1.076c-0.72,6.21-1.26,12.633-1.572,19.17c-0.194,3.29-0.275,8.477-0.331,13.045
		c0,0.32,0.056,0.535,0.217,0.748c0.146,0.193,0.463,0.426,0.556,0.486l5.223,3.004c0.149,0.087,0.356,0.153,0.461,0.134
		c0.104-0.021,0.149-0.107,0.149-0.445v-1.292l0.033-0.585c0-4.338,3.169-7.629,7.277-7.629c2.856,0,4.587,1.141,5.024,3.45
		c0.3,1.563-0.084,3.317-1.055,4.764c-1.782,2.53-4.134,4.249-9.883,4.351c-2.727,0.047-10.944-0.65-13.312-5.32
		c-0.166-0.268-0.258-0.405-0.323-0.673c-0.088-0.158-0.223-0.502-0.321-0.526c-0.128-0.024-0.155,0.155-0.168,0.45
		c-0.035,0.142-0.121,0.481-0.121,0.589c-0.204,1.398-0.873,3.209-1.926,4.065c-1.106,0.922-3.562,1.035-5.491,0.765
		c-0.865-0.137-2.579-0.445-4.201-0.987l-0.274-0.098l0.107-0.219c1.648-4.066,1.732-8.828,0.167-11.331
		c-1.512-2.524-4.245-4.184-7.246-4.536c-2.958-0.322-7.255,0.133-9.595,1.967c-1.202,0.895-1.629,3.231-1.767,4.75
		c-0.041,0.322-0.057,0.618,0.056,0.64c0.082,0.064,0.267-0.11,0.509-0.317c1.064-0.861,2.873-2.032,4.857-2.416
		c2.352-0.427,4.424,0.074,5.466,0.634c2.645,1.423,3.067,3.923,3.153,4.667c0.103,0.769,0.058,1.561-0.109,2.417l-0.066,0.427
		l-0.313-0.296c-3.391-3.194-5.555-4.12-8.573-3.648c-1.453,0.247-3.121,1.058-4.414,2.616c-0.756,0.702-2.696,3.451-4.518,4.156
		c-3.608,1.467-19.235,0.786-21.493-0.607c-1.34-0.816-1.156-2.867-1.073-3.592v-0.095c0.023-0.486,0.3-4.802,0.397-7.105
		c0.088-1.721-0.207-2.908-0.862-3.566c-0.719-0.696-1.877-0.928-2.661-0.928c-0.752,0.022-1.98,0.298-3.546,1.649
		c-4.627,3.995-6.664,6.974-7.532,8.371c-0.124,0.158-0.284,0.456-0.406,0.496c-0.255,0.088-0.255-0.295-0.223-0.454
		c0.014-3.315,0.39-12.362,0.39-12.807c0.688-13.053,2.012-23.073,2.417-25.804l0.022-0.089c0.031-0.204,0.048-0.448-0.022-0.448
		c-0.154-0.09-0.335,0.067-0.355,0.091c0,0-6.184,5.217-6.184,5.191c-0.197,0.171-0.545,0.558-0.648,0.723
		c-0.122,0.22-0.246,0.646-0.281,1.101l-0.017,0.177c-0.55,4.747-1.307,11.239-1.581,18.975
		c-0.449,12.358-0.397,18.401-0.244,24.738c0.045,1.626,0.872,2.108,1.372,2.216c0.159,0.051,1.649,0.435,2.269-0.749
		c3.55-6.789,6.243-10.53,11.133-15.452c0.189-0.207,0.476-0.43,0.822-0.369c0.349,0.098,0.328,0.431,0.31,0.819l-0.162,2.062
		c-0.065,0.892-0.102,1.706-0.172,3.693c-0.077,1.966,0.107,6.681,3.287,8.467c3.304,1.826,19.66,1.507,19.66,1.507
		c5.283,0.072,6.155-0.972,7.185-2.194c0.47-0.559,0.828-1.225,1.112-1.936c1.071,2.669,3.71,3.836,3.852,3.898
		c0,0,1.441,0.6,3.785,0.688c1.806,0.046,3.787-0.456,5.733-1.472c0.56-0.289,1.377-0.857,2.207-1.609l0.184-0.128l0.142,0.128
		c0.694,0.567,1.539,1.126,2.536,1.686c2.515,1.396,7.212,1.213,7.212,1.213c4.598-0.144,6.225-2.209,6.586-3.506
		c0.066-0.285,0.139-0.618,0.204-0.965c0.564,1.305,1.278,2.14,2.126,2.828c2.817,2.302,7.195,2.589,11.484,2.502
		c5.011-0.066,9.477-2.196,11.123-3.496C315.896,116.422,316.452,110.528,316.01,107.985"/>
	<path clip-path="url(#SVGID_2_)" fill="#4D4D4F" d="M198.53,84.349c-2.502-3.827-6.023-6.539-11.048-8.524
		c-2.446-0.967-5.352-1.448-9.146-1.519c0,0-4.359-0.097-6.755-0.283c-1.442-0.161-2.432-0.612-3.141-1.112
		c-0.379-0.284-0.467-0.52-0.736-0.52c-0.274,0.05-0.274,0.724-0.317,1.334c-0.346,4.307-1.491,18.689-1.678,22.211
		c-0.148,3.273-0.219,8.484-0.251,13.081c0,0.326,0.009,0.521,0.165,0.758c0.129,0.169,0.459,0.417,0.561,0.486l5.225,3
		c0.172,0.091,0.328,0.162,0.451,0.114c0.105-0.05,0.145-0.202,0.145-0.568v-1.123l0.054-0.585l0.068-7.74l0.054-1.087
		c0.047-1.939,0.106-4.372,0.219-6.295c0.13-3.229,0.412-6.507,0.655-9.702h0.025c0.04-0.814,0.18-2.152,0.744-3.029
		c0.803-1.257,1.785-1.532,2.68-1.76c1.004-0.198,3.727-0.513,7.763,1.043c3.072,1.195,5.828,3.252,7.386,5.435
		c1.171,1.696,2.14,3.927,2.499,5.778c0.501,2.683,0.678,8.576-1.895,13.614c-2.203,4.21-5.795,6.969-10.811,8.235
		c-1.558,0.387-3.876,0.655-6.698,0.723c-2.783,0.016-13.546-1.338-15.888-6.921c-0.234-0.556-0.269-0.824-0.551-0.824
		c-0.286,0-0.34,0.32-0.443,0.833c-0.246,1.45-0.708,2.962-1.135,3.701c-0.569,0.995-1.37,3.278-9.56,3.144
		c-5.755-0.119-8.126-0.159-10.318-1.475c-0.95-0.609-1.112-1.822-1.112-2.703c0-0.36,0.588-11.094,0.682-12.368
		c0.044-0.405,0.094-0.724-0.116-0.827c-0.209-0.068-0.404,0.121-0.689,0.377c-1.058,0.902-2.896,2.414-4.017,3.41
		c-0.503,0.385-0.683,0.517-0.822,0.81c-0.13,0.298-0.207,0.565-0.22,0.999c-0.192,3.469-0.533,10.694-0.533,10.694l-0.077,0.056
		c-1.083,0.732-3.424,1.14-4.456,1.202c-1.079,0.052-5.049,0.086-7.568-1.558c-0.842-0.539-1.36-1.216-1.546-2.095
		c-0.221-1.112-0.065-2.146,0.478-3.113c0.77-1.224,4.316-6.339,4.316-6.339c0.338-0.565,0.362-0.744,0.289-0.999
		c-0.067-0.333-0.344-0.538-0.55-0.741c-0.448-0.385-1.283-0.865-2.229-1.499c0,0-0.674-0.428-0.837-0.532
		c-0.283-0.206-0.61-0.188-0.852,0.09c-1.053,0.995-4.767,6.702-4.453,12.954c0.188,3.657,1.518,6.272,3.226,7.825
		c1.699,1.57,4.677,3.281,9.557,3.102c2.356-0.11,4.488-1.025,6.277-2.623l0.193-0.158l0.156,0.158
		c0.407,0.505,0.867,0.861,1.38,1.149c3.278,1.828,10.722,1.847,14.635,1.828c8.467-0.081,11.072-2.637,11.822-4.927
		c0.488,0.883,1.058,1.541,1.683,2.134c3.185,2.858,9.776,3.368,13.404,3.379c5.481,0.05,10.605-0.642,13.726-1.888
		c2.897-1.139,6.318-2.854,9.501-6.936c3.206-4.102,4.898-9.907,4.857-16.338C202.91,93.087,201.782,89.321,198.53,84.349"/>
	<path clip-path="url(#SVGID_2_)" fill="#4D4D4F" d="M66.244,112.965h0.058c-0.276-0.105-3.41-1.778-4.984-3.534
		c-1.149-1.338-2.049-2.576-0.034-4.448c0.626-0.513,1.608-1.036,3.002-1.558C64.973,106.827,66.244,112.965,66.244,112.965
		 M80.412,108.681c0.919-1.3,2.25-3.832,0.441-7.686c-1.776-3.852-5.52-5.85-11.051-5.351c-1.247-5.375-5.149-21.437-5.199-21.744
		c-0.078-0.309-0.374-1.031-0.828-1.273c-0.478-0.281-1.152-0.321-1.539-0.321c-0.604,0-2.335,0.085-3.246,0.885
		c-0.969,0.776-1.381,1.595-1.938,2.935c-0.978,2.289-2.633,5.943-4.768,10.536c-1.441,3.043-3.077,6.529-4.919,10.469
		c-2.291,4.854-8.18,16.195-8.774,17.307c-0.416,0.769-0.977,1.373-1.832,1.892c-0.805,0.507-2.913,0.685-4.043,0.125
		c-1.759-0.821-2.453-1.79-2.863-3.128c-0.255-0.787-0.194-1.869-0.156-2.006c0.115-2.03,1.668-3.459,1.783-3.586
		c0.139-0.11,0.229-0.204,0.229-0.312c-0.025-0.118-0.169-0.118-0.344-0.065c-2.305,0.677-4.786,3.021-5.057,6.018
		c0,0.205-0.033,0.409-0.033,0.609c0,2.938,1.886,6.078,4.7,7.628c1.585,0.88,7.719,3.369,11.331-0.408
		c1.23-1.273,2.559-3.492,4.35-7.106c1.81-3.569,6.079-12.317,6.764-13.832c0.739-1.486,4.821-9.978,6.905-14.128l0.312-0.567
		l2.354,11.654c-5.021,1.915-7.218,4.762-8.147,8.819c-1.09,4.377,3.019,10.623,13.33,15.458c0.908,0.483,5.47,2.075,6.273,2.194
		c1.566,0.193,1.755-0.529,1.811-0.903c0.139-0.518-0.212-1.853-0.452-2.844c-0.319-1.312-3.294-12.936-4.412-17.875
		c2.99-0.184,5.427,0.379,6.873,2.253c1.232,1.562,1.493,3.161,1.512,4.158c0,0.586-0.019,0.647,0.071,0.676
		C79.958,109.203,80.092,109.098,80.412,108.681"/>
	<path clip-path="url(#SVGID_2_)" fill="#4D4D4F" d="M121.075,94.039c0.685-0.704,1.856-2.009,2.423-2.669
		c0.158-0.158,0.219-0.274,0.349-0.274c0.174,0,0.231,0.089,0.405,0.226c0.822,0.66,2.204,1.788,2.677,2.236
		c0.369,0.358,1.416,1.488,1.517,3.433c0.057,0.433,0,0.91-0.101,1.384c-0.282,1.571-0.959,3.002-1.399,3.738
		c-0.073,0.137-0.2,0.395-0.344,0.34c-0.146-0.045-0.126-0.314-0.108-0.542c0-0.202,0-0.287-0.018-0.534
		c-0.081-1.027-0.344-2.311-1.335-3.341c-0.932-0.931-2.935-2.391-4.001-3.161c-0.194-0.134-0.245-0.188-0.29-0.386
		C120.828,94.348,120.895,94.307,121.075,94.039"/>
	<path clip-path="url(#SVGID_2_)" fill="#4D4D4F" d="M242.719,107.127c0.115-0.114,0.115-0.339,0-0.48
		c-0.695-0.701-2.619-2.586-3.292-3.265c-0.134-0.139-0.322-0.139-0.453-0.024c-0.674,0.679-2.664,2.636-3.327,3.314
		c-0.099,0.129-0.099,0.318,0,0.455c0.706,0.695,2.628,2.618,3.327,3.292c0.131,0.135,0.319,0.135,0.453,0
		C240.1,109.745,242.023,107.822,242.719,107.127"/>
	<path clip-path="url(#SVGID_2_)" fill="#C32033" d="M423.989,61.399c-2.371-2.506-9.848,1.071-14.702,6.572
		c-4.228,4.79-6.86,11.803-6.86,11.803c1.051-0.133,8.551-3.76,15.158-8.956C420.171,68.788,426.376,63.893,423.989,61.399
		 M420.551,141.135c-8.068,2.982-21.18,5.351-33.136,2.204c-2.642-0.69-4.532-1.439-5.998-2.055
		c13.994,12.331,27.592,17.617,36.176,12.871c11.08-6.108,20.968-16.669,28.164-29.448
		C438.636,133.011,428.781,138.102,420.551,141.135 M409.778,96.478c-2.578-0.562-5.699,7.517-2.466,8.241
		c0.36,0.081,0.827,0.113,1.378,0.095c1.588-0.091,3.175-0.428,4.716-0.961C413.146,99.081,411.872,96.935,409.778,96.478
		 M388.681,62.936c3.666,1.902,3.1,7.093,4.386,11.653c1.283,4.552,5.044,4.932,5.044,4.932s7.686-14.831,1.13-26.838
		c-6.576-12.009-17.358-7.834-20.119-6.518c-3.664,1.74-17.686,10.778-24.729,29.775c-6.961,18.811,3.075,25.259,9.283,26.328
		c6.184,1.077,15.716-5.199,16.033-8.413c0.168-1.69-1.09-2.754-2.949-3.18c-1.863-0.423-6.9,0.653-10.089-3.15
		c-3.943-4.706,2.851-15.096,6.616-18.772C377.221,64.922,383.006,59.984,388.681,62.936 M423.101,113.956
		c0.875-0.894,3.502-3.479,4.391-4.376c0.174-0.148,0.422-0.148,0.597,0.037c0.89,0.893,3.429,3.379,4.347,4.305
		c0.153,0.188,0.153,0.485,0,0.635c-0.918,0.915-3.457,3.451-4.347,4.347c-0.175,0.172-0.423,0.172-0.597,0
		c-0.924-0.896-3.458-3.432-4.391-4.347C422.971,114.375,422.971,114.126,423.101,113.956 M397.559,97.855
		c-0.918,0.91-3.459,3.448-4.346,4.345c-0.177,0.174-0.424,0.174-0.598,0c-0.922-0.896-3.457-3.435-4.389-4.345
		c-0.131-0.183-0.131-0.433,0-0.604c0.875-0.893,3.501-3.478,4.389-4.371c0.174-0.153,0.421-0.153,0.598,0.031
		c0.887,0.896,3.428,3.381,4.346,4.308C397.712,97.404,397.712,97.701,397.559,97.855 M423.809,43.888
		c-0.921,0.913-3.461,3.451-4.348,4.345c-0.177,0.174-0.426,0.174-0.598,0c-0.924-0.894-3.457-3.432-4.39-4.345
		c-0.131-0.181-0.131-0.431,0-0.602c0.874-0.895,3.5-3.48,4.39-4.374c0.172-0.149,0.421-0.149,0.598,0.034
		c0.887,0.895,3.427,3.381,4.348,4.307C423.959,43.441,423.959,43.737,423.809,43.888 M418.347,133.967
		c17.791-6.473,23.367-16.249,27.384-22.991c8.5-14.321,8.73-30.417,8.009-35.106l0.013-0.218c-0.453-3.934-1.554-7.812-2.427-7.868
		c-3.676-0.215-8.758,26.146-11.658,40.8c-0.298,1.505-0.467,2.983-1.338,4.536c-0.706,1.254-1.062,1.751-1.517,2.255
		c-0.524,0.58-1.346,1.152-1.136,0.041c6.707-35.504,10.994-54.55,14.896-62.22c0.423-0.837,0.881-1.337,1.356-1.544
		c-0.746-1.683-1.562-3.341-2.463-4.973C428.477,8.691,372.708-0.734,341.548,16.477c-13.527,7.501-12.324,43.054,5.792,79.157
		c-1.728-10.107,0.61-19.1,5.643-29.508c6.784-14.052,28.398-34.379,44.671-28.11c13.892,5.338,8.54,27.187,8.54,27.187
		s9.646-12.887,17.348-13.288c4.062-0.212,11.003,2.772,2.642,16.401c-9.793,15.97-26.121,23.121-31.854,19.784
		c-5.025-2.922-5.125-8.629-5.449-10.152c-0.326-1.519-1.145-6.612-5.828-6.984c-4.68-0.372-13.137,6.138-12.071,9.03
		c0.922,2.521,7.104,0.519,9.967,2.309c2.873,1.804,3.963,4.479,2.927,9.207c-3.062,14.103-14.794,22.556-22.988,20.567
		c-1.941-0.47-3.842-1.229-5.546-2.247c2.533,4.039,5.168,7.869,7.872,11.471l2.425-4.157c0.072-0.134,0.219-0.212,0.368-0.205
		c4.79,0.186,10.502-1.697,13.164-3.862c-2.089,6.856-4.88,11.274-14.332,10.354c0.104,0.131,0.203,0.261,0.305,0.392
		c1.775,0.878,3.845,1.789,6.269,2.713c14.043,5.352,26.592-1.749,28.794-3.201c1.753-1.154,8.876-5.344,11.876-11.028
		c-1.164,0.177-2.362,0.246-3.594,0.184c-0.902-0.05-1.775-0.137-2.047-0.144c-1.402-0.05-8.793-1.216-3.995-12.354
		c0.86-1.991,4.082-9.703,8.708-7.995c1.366,0.508,4.811,1.791,5.943,7.189c0.19,0.907,0.324,1.809,0.428,2.707
		c4.373-2.713,7.787-7.028,8.631-11.8c0.808-4.574-0.236-6.908-1.518-7.125c-1.741-0.301-4.877,8.368-5.366,8.112
		c-0.483-0.253,0.017-1.447,0.398-2.753c2.994-10.164,7.417-14.02,8.91-14.029c1.49-0.015,3.474,4.673,3.49,10.914
		c0.026,9.804-5.76,21.138-14.791,25.478c-0.798,4.571-2.565,8.563-4.743,11.317c-6.092,7.695-19.096,15.655-35.711,11.903
		c-1.421-0.32-2.762-0.688-4.033-1.087c1.46,1.579,2.925,3.088,4.394,4.523c0.569,0.128,1.631,0.356,3.674,0.705
		C387.896,139.233,402.941,139.563,418.347,133.967"/>
	<path clip-path="url(#SVGID_2_)" fill="#4D4D4F" d="M192.064,140.235c0.564,0,1.029-0.465,1.029-1.009s-0.465-0.989-1.029-0.989
		c-0.543,0-1.009,0.445-1.009,0.989S191.521,140.235,192.064,140.235"/>
	<path clip-path="url(#SVGID_2_)" fill="#4D4D4F" d="M194.684,140.235c0.543,0,1.009-0.465,1.009-1.009s-0.466-0.989-1.009-0.989
		c-0.543,0-0.989,0.445-0.989,0.989S194.141,140.235,194.684,140.235"/>
	<path clip-path="url(#SVGID_2_)" fill="#4D4D4F" d="M205.66,141.593c-2.328,0-3.762,1.223-3.762,3.104
		c0,1.049,0.212,1.804,0.62,2.271c0.484,0.562,1.338,0.834,2.58,0.834h2.619c0,0.602-0.214,0.99-0.621,1.164
		c-0.212,0.078-0.678,0.116-1.358,0.116h-6.517v0.04h-0.694c-1.262,0-1.903-0.66-1.903-1.979v-5.181h-3.937
		c-2.465,0-3.707,1.435-3.707,4.308c0,2.966,1.242,4.441,3.707,4.441c1.455,0,2.405-0.445,2.851-1.358
		c0.408,0.913,1.378,1.358,2.89,1.358h0.793h1.689h5.061c1.164,0,2.018-0.194,2.562-0.602c0.677-0.485,1.027-1.301,1.027-2.445
		v-2.968c0-0.854-0.31-1.552-0.911-2.114C207.969,141.923,206.96,141.593,205.66,141.593 M194.781,146.271
		c0,0.948-0.136,1.648-0.387,2.073c-0.292,0.524-0.834,0.778-1.592,0.778c-0.757,0-1.3-0.254-1.59-0.778
		c-0.252-0.425-0.389-1.125-0.389-2.073c0-0.951,0.137-1.649,0.389-2.058c0.29-0.505,0.833-0.757,1.59-0.757h1.979V146.271z
		 M207.717,146.249h-2.25c-0.776,0-1.262-0.078-1.454-0.232c-0.195-0.176-0.292-0.581-0.292-1.261c0-1.028,0.64-1.532,1.939-1.532
		c1.378,0,2.057,0.504,2.057,1.532V146.249z"/>
	<path clip-path="url(#SVGID_2_)" fill="#4D4D4F" d="M205.66,140.235c0.545,0,1.01-0.465,1.01-1.009s-0.465-0.989-1.01-0.989
		c-0.543,0-1.009,0.445-1.009,0.989S205.117,140.235,205.66,140.235"/>
	<path clip-path="url(#SVGID_2_)" fill="#4D4D4F" d="M223.641,140.235c0.543,0,1.009-0.465,1.009-1.009s-0.466-0.989-1.009-0.989
		c-0.543,0-1.01,0.445-1.01,0.989S223.097,140.235,223.641,140.235"/>
	<path clip-path="url(#SVGID_2_)" fill="#4D4D4F" d="M221.02,140.235c0.564,0,1.029-0.465,1.029-1.009s-0.465-0.989-1.029-0.989
		c-0.543,0-1.009,0.445-1.009,0.989S220.477,140.235,221.02,140.235"/>
	<path clip-path="url(#SVGID_2_)" fill="#4D4D4F" d="M232.645,137.965c0.543,0,1.009-0.427,1.009-0.988
		c0-0.544-0.466-1.009-1.009-1.009c-0.524,0-0.99,0.465-0.99,1.009C231.654,137.538,232.12,137.965,232.645,137.965"/>
	<path clip-path="url(#SVGID_2_)" fill="#4D4D4F" d="M231.344,140.235c0.543,0,0.989-0.465,0.989-1.009s-0.446-0.989-0.989-0.989
		c-0.562,0-1.009,0.445-1.009,0.989S230.781,140.235,231.344,140.235"/>
	<path clip-path="url(#SVGID_2_)" fill="#4D4D4F" d="M232.935,139.228c0,0.543,0.465,1.009,1.009,1.009
		c0.543,0,1.01-0.466,1.01-1.009c0-0.545-0.467-0.989-1.01-0.989C233.4,138.238,232.935,138.683,232.935,139.228"/>
	<path clip-path="url(#SVGID_2_)" fill="#4D4D4F" d="M239.754,147.104c0,1.319-0.642,1.979-1.902,1.979h-1.777v0.04h-0.578
		c-1.281,0-1.923-0.642-1.923-1.922v-5.237l-1.823,0.542v4.639c0,1.318-0.639,1.979-1.941,1.979h-0.793h-1.751h-2.288
		c0.795-0.875,1.203-1.805,1.243-2.756c0.017-1.222-0.254-2.231-0.797-3.007c-0.66-0.931-1.668-1.396-3.026-1.396
		c-1.34,0-2.348,0.466-3.025,1.396c-0.545,0.775-0.797,1.785-0.759,3.007c0.021,0.951,0.408,1.881,1.203,2.756h-2.364v-0.04h-3.452
		c-0.64,0-0.951-0.311-0.951-0.932v-9.952l-1.842,0.582v9.429c0,1.495,0.912,2.503,2.561,2.503h1.571h2.113h3.8
		c0.407,0,0.777-0.04,1.145-0.116c0.387,0.076,0.775,0.116,1.144,0.116h3.724h1.751h0.91c1.185,0,2.096-0.349,2.756-1.029
		c0.66,0.681,1.552,1.029,2.696,1.029h0.696h0.469h1.405c1.106,0,1.999-0.33,2.659-0.97c0.66-0.66,0.988-1.474,0.988-2.465v-9.039
		l-1.842,0.542V147.104z M223.931,147.841c-0.368,0.64-0.873,1.087-1.533,1.299c-0.64-0.212-1.145-0.659-1.533-1.299
		c-0.329-0.563-0.485-1.184-0.485-1.862c0-1.319,0.756-2.387,2.018-2.387c1.318,0,2.036,1.067,2.036,2.387
		C224.434,146.657,224.261,147.277,223.931,147.841"/>
	<polygon clip-path="url(#SVGID_2_)" fill="#4D4D4F" points="243.266,150.712 245.109,150.712 245.109,138.197 243.266,138.78 	"/>
	<path clip-path="url(#SVGID_2_)" fill="#4D4D4F" d="M251.372,142.293c-1.339,0-2.348,0.466-2.987,1.377
		c-0.523,0.757-0.796,1.746-0.796,2.968s0.272,2.193,0.796,2.95c0.64,0.93,1.648,1.396,2.987,1.396c0.68,0,1.28-0.155,1.843-0.467
		c-0.154,1.455-0.933,2.231-2.327,2.31c-0.95,0.059-1.979-0.156-3.085-0.68l0.814,1.784c0.543,0.33,1.3,0.506,2.271,0.506
		c1.378,0,2.425-0.448,3.143-1.319c0.68-0.777,1.01-1.824,1.026-3.162c0-0.195,0.021-0.604,0.062-1.224
		c0.017-0.562,0.017-1.048,0.017-1.416c0-1.494-0.212-2.638-0.639-3.434C253.894,142.815,252.847,142.293,251.372,142.293
		 M251.372,149.374c-1.3,0-1.958-0.911-1.958-2.736c0-1.843,0.658-2.755,1.958-2.755s1.94,0.912,1.94,2.755
		C253.312,148.463,252.672,149.374,251.372,149.374"/>
	<path clip-path="url(#SVGID_2_)" fill="#4D4D4F" d="M265.516,140.235c0.543,0,1.009-0.465,1.009-1.009s-0.466-0.989-1.009-0.989
		s-0.99,0.445-0.99,0.989S264.973,140.235,265.516,140.235"/>
	<path clip-path="url(#SVGID_2_)" fill="#4D4D4F" d="M262.896,140.235c0.562,0,1.028-0.465,1.028-1.009s-0.466-0.989-1.028-0.989
		c-0.545,0-1.01,0.445-1.01,0.989S262.352,140.235,262.896,140.235"/>
	<path clip-path="url(#SVGID_2_)" fill="#4D4D4F" d="M275.996,141.963c-1.571,0-2.988,0.639-4.29,1.9l1.321,1.222
		c0.911-0.988,1.9-1.493,2.969-1.493c1.26,0,2.114,0.543,2.541,1.63c0.271,0.659,0.406,1.727,0.406,3.202v0.697h-7.971h-0.468
		h-1.147c-1.262,0-1.902-0.66-1.902-1.979v-5.18h-3.938c-2.464,0-3.706,1.434-3.706,4.307c0,2.967,1.242,4.441,3.706,4.441
		c1.456,0,2.406-0.445,2.853-1.356c0.406,0.911,1.378,1.356,2.89,1.356h1.246h0.468h9.854v-2.287c0-1.884-0.251-3.339-0.758-4.327
		C279.312,142.68,277.954,141.963,275.996,141.963 M265.612,146.27c0,0.951-0.136,1.648-0.388,2.076
		c-0.292,0.522-0.835,0.775-1.592,0.775s-1.3-0.253-1.59-0.775c-0.252-0.428-0.387-1.125-0.387-2.076s0.135-1.649,0.387-2.057
		c0.29-0.504,0.833-0.758,1.59-0.758h1.979V146.27z"/>
	<path clip-path="url(#SVGID_2_)" fill="#4D4D4F" d="M292.844,152.438c-0.543,0-0.99,0.446-0.99,0.989
		c0,0.544,0.447,1.009,0.99,1.009s1.009-0.465,1.009-1.009C293.853,152.885,293.387,152.438,292.844,152.438"/>
	<path clip-path="url(#SVGID_2_)" fill="#4D4D4F" d="M290.244,152.438c-0.562,0-0.99,0.446-0.99,0.989
		c0,0.544,0.428,1.009,0.99,1.009c0.543,0,1.01-0.465,1.01-1.009C291.254,152.885,290.787,152.438,290.244,152.438"/>
	<path clip-path="url(#SVGID_2_)" fill="#4D4D4F" d="M324.493,138.78v8.323c0,1.32-0.639,1.979-1.9,1.979h-0.658h-0.488h-0.678
		c-1.261,0-1.901-0.621-1.901-1.884v-9.001l-1.842,0.582v8.323c0,1.32-0.642,1.979-1.921,1.979h-1.454h-0.409h-1.684v-7.12
		l-1.845,0.543v6.577h-3.879v-6.269l-1.844,0.544v5.725h-3.843v-5.434l-1.842,0.524v4.909h-2.831v0.039h-1.117
		c-1.281,0-1.921-0.642-1.921-1.923v-5.236l-1.825,0.543v4.637c0,1.319-0.639,1.979-1.938,1.979h-0.793v-0.039h-2.595
		c-0.639,0-0.949-0.311-0.949-0.933v-9.952l-1.844,0.582v9.43c0,1.492,0.913,2.502,2.562,2.502h1.568h1.257h0.908
		c1.185,0,2.097-0.349,2.756-1.028c0.659,0.68,1.552,1.028,2.697,1.028h1.233h0.969h16.798h0.409h1.57
		c1.184,0,2.095-0.349,2.733-1.047c0.681,0.698,1.573,1.047,2.699,1.047h0.793h0.488h0.754c1.107,0,1.999-0.33,2.659-0.97
		c0.66-0.659,0.989-1.475,0.989-2.465v-9.04L324.493,138.78z"/>
	<polygon clip-path="url(#SVGID_2_)" fill="#4D4D4F" points="26.847,138.945 30.594,138.945 30.594,150.697 32.656,150.697 
		32.656,138.945 36.402,138.945 36.402,137.093 26.847,137.093 	"/>
	<path clip-path="url(#SVGID_2_)" fill="#4D4D4F" d="M40.494,140.896c-1.32,0-2.255,0.496-2.886,1.146
		c-0.918,0.956-1.147,2.178-1.147,3.803c0,1.643,0.229,2.866,1.147,3.821c0.631,0.649,1.566,1.146,2.886,1.146
		c1.319,0,2.273-0.497,2.904-1.146c0.918-0.955,1.147-2.179,1.147-3.821c0-1.625-0.229-2.847-1.147-3.803
		C42.767,141.392,41.812,140.896,40.494,140.896 M41.926,148.501c-0.363,0.362-0.859,0.571-1.432,0.571
		c-0.574,0-1.052-0.209-1.414-0.571c-0.592-0.594-0.669-1.606-0.669-2.656c0-1.052,0.077-2.065,0.669-2.658
		c0.362-0.363,0.84-0.554,1.414-0.554c0.573,0,1.069,0.19,1.432,0.554c0.593,0.593,0.669,1.606,0.669,2.658
		C42.595,146.895,42.519,147.907,41.926,148.501"/>
	<path clip-path="url(#SVGID_2_)" fill="#4D4D4F" d="M52.839,146.914c0,1.49-0.916,2.158-2.006,2.158
		c-1.088,0-1.949-0.648-1.949-2.158v-5.905h-1.95v6.192c0,1.09,0.23,2.006,0.975,2.733c0.574,0.553,1.394,0.878,2.389,0.878
		c0.975,0,1.91-0.363,2.579-1.088v0.973h1.912v-9.688h-1.95V146.914z"/>
	<path clip-path="url(#SVGID_2_)" fill="#4D4D4F" d="M59.645,142.061v-1.052h-1.91v9.688h1.947v-5.885
		c0-1.337,0.879-2.18,1.931-2.18c0.669,0,1.013,0.21,1.451,0.651l1.472-1.473c-0.669-0.669-1.375-0.916-2.311-0.916
		C61.136,140.896,60.142,141.372,59.645,142.061"/>
	<rect x="65.971" y="141.009" clip-path="url(#SVGID_2_)" fill="#4D4D4F" width="1.949" height="9.689"/>
	<rect x="65.914" y="137.034" clip-path="url(#SVGID_2_)" fill="#4D4D4F" width="2.063" height="2.062"/>
	<path clip-path="url(#SVGID_2_)" fill="#4D4D4F" d="M75.146,145.003l-1.53-0.134c-1.03-0.096-1.336-0.535-1.336-1.107
		c0-0.727,0.591-1.243,1.757-1.243c0.918,0,1.778,0.191,2.39,0.707l1.222-1.242c-0.899-0.784-2.14-1.089-3.593-1.089
		c-2.025,0-3.65,1.07-3.65,2.961c0,1.701,1.053,2.522,2.866,2.677l1.549,0.134c0.937,0.077,1.299,0.496,1.299,1.147
		c0,0.916-0.937,1.336-2.121,1.336c-0.955,0-2.006-0.21-2.79-1.013l-1.28,1.281c1.146,1.128,2.484,1.394,4.07,1.394
		c2.312,0,4.032-1.051,4.032-3.076C78.03,146.016,76.96,145.155,75.146,145.003"/>
	<path clip-path="url(#SVGID_2_)" fill="#4D4D4F" d="M90.529,140.895c-1.281,0-2.255,0.457-3.038,1.415
		c-0.612-0.937-1.548-1.415-2.752-1.415c-0.974,0-1.931,0.382-2.58,1.091v-0.978h-1.91v9.689h1.949v-5.905
		c0-1.489,0.917-2.159,2.006-2.159c1.089,0,1.95,0.65,1.95,2.159v5.905h1.948v-5.999c0-1.396,0.955-2.065,2.006-2.065
		c1.09,0,1.951,0.65,1.951,2.159v5.905h1.948v-6.19c0-1.09-0.287-2.008-1.032-2.731C92.403,141.218,91.523,140.895,90.529,140.895"
		/>
	<path clip-path="url(#SVGID_2_)" fill="#4D4D4F" d="M111.899,143.799h-1.873c-0.02,1.243-0.23,2.025-0.725,2.734l-2.868-3.423
		l0.994-0.687c0.86-0.591,1.451-1.337,1.451-2.408c0-1.739-1.298-3.038-3.228-3.038c-2.026,0-3.325,1.279-3.325,3.019
		c0,1.261,0.803,2.217,1.415,2.925c-1.338,0.878-2.696,1.948-2.696,3.84c0,2.465,1.568,4.052,4.396,4.052
		c2.063,0,3.171-0.937,3.763-1.453l1.111,1.339h2.501l-2.273-2.714C111.458,146.914,111.842,145.539,111.899,143.799
		 M105.65,138.678c0.803,0,1.356,0.593,1.356,1.357c0,0.63-0.459,1.052-0.994,1.414c0,0-0.438,0.306-0.648,0.438
		c-0.687-0.801-1.052-1.316-1.052-1.872C104.312,139.251,104.809,138.678,105.65,138.678 M105.44,149.036
		c-1.415,0-2.465-0.958-2.465-2.312c0-1.262,0.84-1.893,1.834-2.579l3.23,3.84C107.14,148.787,106.356,149.036,105.44,149.036"/>
	<path clip-path="url(#SVGID_2_)" fill="#4D4D4F" d="M124.15,138.83c1.509,0,2.427,0.956,2.752,2.333h2.101
		c-0.478-2.714-2.35-4.186-4.853-4.186c-1.415,0-2.637,0.516-3.574,1.451c-1.337,1.339-1.317,2.848-1.317,5.467
		c0,2.616-0.02,4.128,1.317,5.464c0.937,0.936,2.159,1.454,3.574,1.454c2.465,0,4.396-1.473,4.853-4.186h-2.082
		c-0.325,1.375-1.262,2.329-2.771,2.329c-0.803,0-1.53-0.304-2.008-0.819c-0.669-0.726-0.82-1.51-0.82-4.242s0.151-3.517,0.82-4.243
		C122.621,139.137,123.348,138.83,124.15,138.83"/>
	<path clip-path="url(#SVGID_2_)" fill="#4D4D4F" d="M137.185,146.914c0,1.49-0.916,2.158-2.006,2.158
		c-1.088,0-1.949-0.648-1.949-2.158v-5.905h-1.95v6.192c0,1.09,0.23,2.006,0.975,2.733c0.574,0.553,1.394,0.878,2.389,0.878
		c0.975,0,1.91-0.363,2.579-1.088v0.973h1.912v-9.688h-1.95V146.914z"/>
	<path clip-path="url(#SVGID_2_)" fill="#4D4D4F" d="M143.972,147.908v-10.815h-1.95v10.93c0,1.435,0.803,2.676,2.656,2.676h1.204
		v-1.662h-0.86C144.24,149.036,143.972,148.653,143.972,147.908"/>
	<path clip-path="url(#SVGID_2_)" fill="#4D4D4F" d="M150.05,138.239h-1.95v2.942h-1.108v1.49h1.108v5.331
		c0,1.396,0.843,2.694,2.656,2.694h1.166v-1.662h-0.801c-0.727,0-1.071-0.42-1.071-1.128v-5.235h1.872v-1.49h-1.872V138.239z"/>
	<path clip-path="url(#SVGID_2_)" fill="#4D4D4F" d="M160.064,146.914c0,1.49-0.916,2.158-2.006,2.158
		c-1.088,0-1.949-0.648-1.949-2.158v-5.905h-1.95v6.192c0,1.09,0.23,2.006,0.975,2.733c0.574,0.553,1.394,0.878,2.389,0.878
		c0.975,0,1.91-0.363,2.579-1.088v0.973h1.912v-9.688h-1.95V146.914z"/>
	<path clip-path="url(#SVGID_2_)" fill="#4D4D4F" d="M166.87,142.061v-1.052h-1.91v9.688h1.947v-5.885
		c0-1.337,0.879-2.18,1.931-2.18c0.669,0,1.013,0.21,1.451,0.651l1.472-1.473c-0.669-0.669-1.375-0.916-2.312-0.916
		C168.361,140.896,167.367,141.372,166.87,142.061"/>
	<path clip-path="url(#SVGID_2_)" fill="#4D4D4F" d="M180.265,145.558c0-2.752-1.509-4.662-4.108-4.662
		c-2.484,0-4.109,1.812-4.109,4.949c0,3.688,1.931,4.968,4.358,4.968c1.701,0,2.636-0.516,3.631-1.511l-1.243-1.164
		c-0.687,0.686-1.262,0.994-2.35,0.994c-1.586,0-2.465-1.053-2.465-2.714h6.286V145.558z M173.979,145.061
		c0.019-0.593,0.057-0.879,0.248-1.318c0.306-0.726,1.012-1.223,1.93-1.223c0.916,0,1.606,0.497,1.91,1.223
		c0.193,0.439,0.251,0.726,0.268,1.318H173.979z"/>
</g>
</svg>
