<?xml version="1.0" encoding="UTF-8"?>
<!DOCTYPE svg PUBLIC "-//W3C//DTD SVG 1.1//EN" "http://www.w3.org/Graphics/SVG/1.1/DTD/svg11.dtd">
<svg version="1.1" xmlns="http://www.w3.org/2000/svg" xmlns:xlink="http://www.w3.org/1999/xlink" x="0" y="0" viewBox="0, 0, 71, 58">
  <g id="Layer_1">
    <path d="M32.023,15.278 C32.023,15.278 37.896,16.617 41.046,19.835 C41.046,19.835 44.034,22.387 45.267,27.526 C45.267,27.526 45.305,27.099 45.246,26.605 C45.246,26.605 45.44,27.044 45.578,27.508 C45.578,27.508 45.569,27.181 45.516,26.962 C45.516,26.962 45.857,27.788 45.97,28.477 C45.97,28.477 45.495,24.538 43.413,20.967 C43.413,20.967 44.913,21.571 46.639,28.001 C46.639,28.001 45.873,22.627 43.62,19.706 C43.62,19.706 40.68,14.992 33.639,12.873 C33.639,12.873 32.811,13.324 32.973,14.076 C32.973,14.076 32.951,15.016 32.023,15.278" fill="#D6232C"/>
    <path d="M46.173,26.228 C46.168,26.228 46.166,26.227 46.166,26.225 C45.624,23.582 44.646,21.226 43.254,19.226 C42.141,17.623 40.763,16.243 39.16,15.124 C36.428,13.214 33.956,12.715 33.931,12.712 C33.93,12.71 33.927,12.707 33.927,12.705 C33.927,12.702 33.931,12.7 33.934,12.7 C33.957,12.705 36.433,13.204 39.164,15.111 C40.77,16.236 42.15,17.616 43.263,19.219 C44.656,21.221 45.634,23.578 46.178,26.223 C46.178,26.225 46.177,26.23 46.173,26.228" fill="#D6232C"/>
    <path d="M45.774,23.924 C45.768,23.924 45.763,23.919 45.761,23.912 C45.282,22.025 44.36,20.263 43.026,18.674 C41.957,17.402 40.622,16.238 39.057,15.215 C36.39,13.47 33.952,12.726 33.929,12.719 C33.92,12.716 33.917,12.707 33.919,12.702 C33.92,12.693 33.929,12.691 33.936,12.693 C33.961,12.7 36.403,13.444 39.07,15.191 C40.639,16.216 41.974,17.382 43.045,18.656 C44.384,20.247 45.305,22.015 45.787,23.907 C45.791,23.916 45.785,23.923 45.778,23.924 z" fill="#D6232C"/>
    <path d="M37.449,2.429 C36.597,2.745 36.532,3.758 36.286,5.036 C36.286,5.036 39.578,6.001 43.429,12.164 C43.429,12.164 47.321,19.873 47.157,27.941 C47.157,27.941 47.263,24.949 47.262,24.405 C47.262,24.405 47.431,25.932 47.374,26.406 C47.374,26.406 47.476,25.831 47.489,25.279 C47.489,25.279 47.682,26.057 47.739,27.998 C47.739,27.998 48.07,26.637 48.013,22.812 C48.013,22.812 48.041,20.132 47.317,17.575 C47.317,17.575 46.322,14.197 46.134,13.664 C46.134,13.664 47.525,17.149 48.045,19.504 C48.045,19.504 49.064,23.183 48.723,28.342 C48.723,28.342 49.215,27.439 49.415,23.854 C49.415,23.854 49.486,20.704 48.71,17.917 L48.005,15.434 C48.005,15.434 48.845,17.509 49.262,19.844 C49.262,19.844 49.983,23.296 49.332,26.777 C49.332,26.777 49.159,28.459 48.931,29.077 C48.931,29.077 49.309,28.358 49.627,25.305 C49.627,25.305 49.974,23.117 49.432,20.164 C49.432,20.164 49.081,18.263 48.692,17.099 C48.692,17.099 47.042,11.137 44.712,7.311 C44.712,7.311 42.494,3.372 39.285,0.768 C39.285,0.768 39.686,1.603 37.449,2.429" fill="#195691"/>
    <path d="M49.245,19.442 C49.241,19.442 49.239,19.442 49.238,19.437 C49.231,19.401 48.511,15.657 46.944,11.475 C46.025,9.017 44.997,6.895 43.892,5.158 C42.509,2.989 41.001,1.426 39.405,0.514 C39.403,0.512 39.402,0.509 39.403,0.505 C39.405,0.504 39.409,0.501 39.411,0.504 C41.009,1.418 42.516,2.981 43.899,5.15 C45.007,6.887 46.034,9.015 46.954,11.471 C48.52,15.654 49.243,19.398 49.249,19.436 C49.249,19.439 49.248,19.442 49.245,19.442" fill="#195691"/>
    <path d="M49.714,25.498 L49.711,25.498 C49.696,25.496 49.684,25.482 49.686,25.467 C50.063,22.278 49.413,19.517 49.404,19.49 C48.465,15.293 46.616,9.287 43.159,4.489 C41.094,1.624 39.411,0.541 39.394,0.531 C39.379,0.522 39.376,0.505 39.385,0.493 C39.394,0.479 39.411,0.477 39.422,0.484 C39.44,0.497 41.132,1.583 43.203,4.458 C45.115,7.108 47.753,11.867 49.459,19.477 C49.466,19.505 50.117,22.277 49.741,25.474 C49.739,25.489 49.729,25.498 49.714,25.498" fill="#195691"/>
    <path d="M46.497,6.505 C46.497,6.505 49.752,8.225 51.216,13.439 C51.216,13.439 53.351,20.92 49.643,27.718 C49.643,27.718 50.392,26.554 50.655,25.723 C50.655,25.723 50.329,27.111 50.17,27.331 C50.17,27.331 50.461,26.815 50.681,26.517 C50.681,26.517 50.591,27.062 49.754,28.493 C49.754,28.493 52.344,25.854 53.149,20.213 C53.149,20.213 53.398,22.072 52.616,24.547 C52.616,24.547 51.838,27.273 50.231,29.122 C50.231,29.122 52.57,27.673 54.014,21.533 C54.014,21.533 54.634,18.914 54.556,16.458 C54.556,16.458 54.639,10.061 51.137,5.717 C51.137,5.717 50.223,4.548 49.221,3.914 C49.221,3.914 49.245,4.58 47.952,5.194 C47.952,5.194 47.244,5.52 46.497,6.505" fill="#187D45"/>
    <path d="M53.628,22.932 L53.624,22.932 C53.618,22.93 53.614,22.921 53.614,22.916 C53.624,22.88 54.6,19.354 54.55,15.245 C54.524,12.835 54.15,10.699 53.449,8.896 C52.57,6.642 51.17,4.909 49.282,3.738 C49.277,3.736 49.274,3.726 49.277,3.719 C49.282,3.712 49.292,3.712 49.298,3.714 C51.189,4.888 52.594,6.626 53.476,8.884 C54.18,10.692 54.55,12.831 54.579,15.247 C54.629,19.358 53.652,22.885 53.642,22.921 C53.64,22.928 53.635,22.932 53.628,22.932" fill="#187D45"/>
    <path d="M52.089,27.013 C52.083,27.013 52.078,27.012 52.074,27.01 C52.061,27.002 52.058,26.984 52.065,26.971 C54.309,23.085 54.609,19.422 54.611,19.386 C54.864,15.912 54.663,10.943 52.274,6.997 C51.13,5.111 49.812,4.05 49.277,3.752 C49.262,3.745 49.258,3.726 49.266,3.713 C49.273,3.701 49.289,3.697 49.303,3.702 C49.843,4.002 51.171,5.072 52.318,6.968 C54.718,10.926 54.918,15.909 54.666,19.391 C54.664,19.427 54.363,23.102 52.112,26.998 C52.108,27.009 52.097,27.013 52.089,27.013" fill="#187D45"/>
    <path d="M50.6,31.089 C50.598,31.089 50.594,31.087 50.591,31.082 C50.587,31.077 50.591,31.071 50.594,31.068 C52.56,29.829 54.064,28.55 55.063,27.264 C55.875,26.218 56.357,25.168 56.503,24.134 C56.783,22.134 55.674,20.872 55.663,20.86 C55.658,20.857 55.658,20.848 55.663,20.844 C55.668,20.839 55.674,20.839 55.678,20.844 C55.692,20.858 56.804,22.127 56.524,24.137 C56.379,25.172 55.894,26.231 55.079,27.28 C54.079,28.566 52.576,29.846 50.606,31.087 C50.604,31.089 50.602,31.089 50.6,31.089" fill="#F9D03E"/>
    <path d="M57.684,21.878 C57.677,21.878 57.672,21.876 57.67,21.869 C57.389,20.123 56.501,18.534 55.031,17.144 C53.853,16.029 52.302,15.042 50.423,14.204 C47.219,12.779 44.126,12.286 44.096,12.28 C44.087,12.277 44.08,12.272 44.083,12.263 C44.083,12.256 44.092,12.251 44.099,12.253 C44.13,12.256 47.228,12.753 50.434,14.178 C52.319,15.016 53.87,16.009 55.05,17.121 C56.524,18.518 57.416,20.114 57.696,21.864 C57.698,21.871 57.694,21.878 57.686,21.878 z" fill="#F9D03E"/>
    <path d="M55.777,29.097 L55.774,29.094 C55.77,29.092 55.77,29.085 55.772,29.084 C57.945,25.981 58.535,23.129 57.522,20.6 C56.962,19.203 55.909,17.893 54.39,16.714 C53.173,15.768 51.66,14.903 49.89,14.138 C46.874,12.838 44.123,12.278 44.095,12.273 C44.091,12.271 44.087,12.267 44.089,12.263 C44.089,12.259 44.095,12.256 44.098,12.256 C44.126,12.261 46.879,12.821 49.896,14.122 C51.669,14.887 53.183,15.754 54.4,16.701 C55.923,17.883 56.977,19.193 57.54,20.592 C58.552,23.127 57.963,25.988 55.786,29.092 C55.784,29.094 55.78,29.097 55.777,29.097" fill="#F9D03E"/>
    <path d="M54.875,23.988 L54.864,23.988 C54.835,23.979 54.814,23.95 54.822,23.919 C54.824,23.916 54.961,23.261 54.311,22.349 C53.034,20.565 49.155,18.184 37.918,16.958 C37.886,16.956 37.864,16.927 37.867,16.9 C37.871,16.867 37.901,16.846 37.931,16.848 C49.224,18.077 53.124,20.489 54.404,22.292 C55.083,23.244 54.939,23.916 54.931,23.946 C54.926,23.971 54.901,23.988 54.875,23.988" fill="#F9D03E"/>
    <path d="M34.743,22.035 C34.743,22.035 36.564,24.617 38.958,26.017 C38.958,26.017 41.237,27.493 44.049,28.7 C44.049,28.7 43.876,28.602 43.606,28.293 C43.606,28.293 43.919,28.429 44.103,28.493 C44.103,28.493 44.001,28.453 43.876,28.269 C43.876,28.269 44.677,28.595 44.841,28.62 C44.841,28.62 44.448,28.415 44.103,28.23 C44.103,28.23 41.952,27.231 40.323,25.774 C40.323,25.774 41.246,26.416 42.177,26.848 C42.177,26.848 43.763,27.64 45.335,28.089 C45.335,28.089 44.801,27.918 44.282,27.589 C44.282,27.589 41.349,25.969 41.222,25.732 C41.222,25.732 42.364,26.377 42.492,26.442 C42.492,26.442 42.779,26.607 42.852,26.643 C42.852,26.643 42.847,26.579 42.619,26.485 C42.619,26.485 41.303,25.696 40.969,25.477 C40.969,25.477 38.665,24.123 36.906,21.392 C36.906,21.392 36.208,21.408 35.838,21.793 C35.838,21.793 35.644,22.042 34.743,22.035" fill="#131614"/>
    <path d="M42.287,27.826 L42.28,27.826 C40.504,27.083 37.989,25.81 36.099,23.968 C34.968,22.864 34.594,22.07 34.59,22.059 C34.586,22.053 34.59,22.044 34.597,22.042 C34.601,22.037 34.611,22.042 34.615,22.049 C34.619,22.056 34.991,22.849 36.122,23.95 C37.163,24.965 39.077,26.456 42.29,27.799 C42.298,27.802 42.302,27.81 42.298,27.816 C42.296,27.823 42.29,27.826 42.287,27.826" fill="#131614"/>
    <path d="M44.058,28.748 C44.058,28.748 44.056,28.748 44.054,28.747 C40.504,27.437 38.123,25.687 36.75,24.451 C35.261,23.111 34.605,22.067 34.599,22.056 C34.597,22.055 34.597,22.053 34.603,22.049 C34.603,22.046 34.607,22.049 34.609,22.053 C34.616,22.061 35.27,23.103 36.757,24.442 C38.13,25.679 40.511,27.427 44.06,28.738 C44.063,28.738 44.065,28.741 44.063,28.743 C44.063,28.745 44.06,28.748 44.058,28.748" fill="#131614"/>
    <path d="M38.429,16.513 C38.429,16.513 46.954,17.79 50.035,19.235 C50.035,19.235 57.686,21.871 53.556,26.74 C53.556,26.74 52.735,27.806 51.547,28.557 C51.547,28.557 51.767,28.516 52.217,28.171 C52.217,28.171 51.847,28.755 50.658,29.465 C50.658,29.465 51.688,29.15 53.451,27.806 C53.451,27.806 55.735,26.102 56.015,23.586 C56.015,23.586 56.242,22.319 55.783,21.014 C55.783,21.014 56.614,21.772 56.619,23.586 C56.619,23.586 56.89,27.509 51.314,30.951 C51.314,30.951 52.367,30.602 53.94,29.504 C53.94,29.504 59.255,26.1 57.037,20.574 C57.037,20.574 58.378,22.67 57.268,25.713 C57.268,25.713 56.669,27.777 53.953,30.105 C53.953,30.105 55.222,29.524 56.367,27.725 C56.367,27.725 57.796,25.785 57.816,23.618 C57.816,23.618 58.119,20.445 55.417,17.764 C55.417,17.764 52.673,14.912 46.818,13.204 C46.818,13.204 45.263,12.716 43.94,12.541 C43.94,12.541 43.441,13.808 42.671,14.514 C41.932,15.195 40.219,15.892 38.429,16.513" fill="#F9D03E"/>
    <path d="M12.893,33.483 C10.691,33.483 9.908,35.235 9.908,36.737 C9.908,38.236 10.691,39.99 12.893,39.99 C15.098,39.99 15.88,38.236 15.88,36.737 C15.88,35.235 15.098,33.483 12.893,33.483 M12.893,39.37 C11.603,39.37 10.738,38.312 10.738,36.737 C10.738,35.16 11.603,34.1 12.893,34.1 C14.182,34.1 15.05,35.16 15.05,36.737 C15.05,38.312 14.182,39.37 12.893,39.37" fill="#131614"/>
    <path d="M17.552,34.627 L17.552,33.606 L16.85,33.606 L16.85,39.818 L17.603,39.818 L17.603,36.749 L17.6,36.709 C17.603,35.564 17.927,34.196 19.469,34.196 L19.705,34.208 L19.707,34.185 L19.744,33.46 L19.657,33.46 C18.615,33.46 17.907,33.856 17.552,34.627" fill="#131614"/>
    <path d="M34.083,34.818 C33.562,34.645 33.185,34.549 32.564,34.549 C32.11,34.549 31.567,34.709 31.567,35.247 C31.567,36.252 34.511,35.615 34.511,37.897 C34.511,39.368 33.16,39.958 31.782,39.958 C31.138,39.958 30.479,39.848 29.862,39.687 L29.963,38.338 C30.494,38.596 31.048,38.755 31.629,38.755 C32.06,38.755 32.741,38.596 32.741,37.983 C32.741,36.743 29.799,37.59 29.799,35.308 C29.799,33.947 31.023,33.346 32.349,33.346 C33.145,33.346 33.664,33.469 34.193,33.579 L34.083,34.818" fill="#131614"/>
    <path d="M41.965,39.818 L41.965,33.502 L43.658,33.502 L43.658,39.818" fill="#131614"/>
    <path d="M54.348,34.818 C53.83,34.645 53.452,34.549 52.83,34.549 C52.376,34.549 51.835,34.709 51.835,35.247 C51.835,36.252 54.778,35.615 54.778,37.897 C54.778,39.368 53.425,39.958 52.048,39.958 C51.403,39.958 50.748,39.848 50.129,39.687 L50.229,38.338 C50.76,38.596 51.316,38.755 51.897,38.755 C52.327,38.755 53.009,38.596 53.009,37.983 C53.009,36.743 50.066,37.59 50.066,35.308 C50.066,33.947 51.29,33.346 52.617,33.346 C53.415,33.346 53.932,33.469 54.461,33.579 L54.348,34.818" fill="#131614"/>
    <path d="M38.659,36.33 L41.055,33.502 L39.06,33.502 L37.04,36.027 L37.013,36.027 L37.013,30.1 L35.32,30.619 L35.32,39.818 L37.013,39.818 L37.013,36.751 L37.04,36.751 L39.211,39.818 L41.359,39.818 z" fill="#131614"/>
    <path d="M27.527,30.449 L26.805,30.669 L26.805,34.51 C26.649,34.246 26.062,33.443 24.748,33.46 C22.573,33.486 22.119,35.244 22.119,36.713 C22.119,38.72 23.127,39.967 24.75,39.967 C25.715,39.967 26.371,39.609 26.805,38.853 L26.805,39.818 L27.555,39.818 L27.555,30.438 L27.527,30.449 M24.876,39.347 C23.134,39.347 22.947,37.505 22.947,36.713 C22.947,35.921 23.134,34.078 24.876,34.078 C26.209,34.078 26.805,35.401 26.805,36.713 C26.805,38.024 26.209,39.347 24.876,39.347" fill="#131614"/>
    <path d="M21.25,30.449 L20.53,30.669 L20.53,39.818 L21.283,39.818 L21.283,30.438 z" fill="#131614"/>
    <path d="M44.75,30.619 L44.75,39.818 L46.443,39.818 L46.443,30.099 z" fill="#131614"/>
    <path d="M47.419,30.619 L47.419,30.619 L47.419,39.818 L49.112,39.818 L49.112,30.099 z" fill="#131614"/>
    <path d="M43.79,31.141 C43.79,30.62 43.368,30.199 42.848,30.199 C42.326,30.199 41.904,30.62 41.904,31.141 C41.904,31.662 42.326,32.086 42.848,32.086 C43.368,32.086 43.79,31.662 43.79,31.141" fill="#131614"/>
    <path d="M1.115,33.601 L0.307,33.601 L0.318,33.633 C0.354,33.752 2.342,39.742 2.359,39.798 L2.366,39.815 L3.292,39.815 C3.292,39.815 5.039,34.436 5.049,34.407 L5.108,34.407 C5.116,34.436 6.864,39.814 6.864,39.814 L7.792,39.815 L9.899,33.601 L9.147,33.601 C9.147,33.601 7.377,38.98 7.369,39.013 L7.31,39.013 C7.301,38.98 5.606,33.601 5.606,33.601 L4.677,33.601 C4.677,33.601 2.892,38.98 2.885,39.013 L2.826,39.013 C2.815,38.979 1.132,33.601 1.132,33.601 L1.115,33.601" fill="#131614"/>
    <path d="M4.017,42.046 L2.163,46.742 L5.858,46.742 z M3.603,41.241 L4.554,41.241 L7.934,49.754 L7.055,49.754 L6.138,47.475 L1.846,47.475 L0.931,49.754 L0.113,49.754 z" fill="#131614"/>
    <path d="M10.979,44.046 C9.577,44.046 9.139,45.51 9.139,46.645 C9.139,47.779 9.614,49.24 10.979,49.24 C12.444,49.24 12.822,47.852 12.822,46.645 C12.822,45.437 12.444,44.046 10.979,44.046 M8.372,40.606 L9.139,40.606 L9.139,44.583 L9.163,44.583 C9.273,44.277 9.882,43.386 11.103,43.386 C12.931,43.386 13.663,44.752 13.663,46.645 C13.663,48.484 12.809,49.9 11.103,49.9 C10.212,49.9 9.577,49.559 9.163,48.767 L9.139,48.767 L9.139,49.754 L8.372,49.754 z" fill="#131614"/>
    <path d="M19.469,48.289 C19.469,48.767 19.469,49.254 19.518,49.754 L18.773,49.754 L18.773,48.645 L18.749,48.645 C18.493,49.206 18.031,49.9 16.737,49.9 C15.2,49.9 14.615,48.877 14.615,47.511 L14.615,43.534 L15.384,43.534 L15.384,47.315 C15.384,48.484 15.799,49.24 16.859,49.24 C18.263,49.24 18.701,48.011 18.701,46.973 L18.701,43.534 L19.469,43.534 z" fill="#131614"/>
    <path d="M21.64,49.022 L22.336,49.022 C24.75,49.022 26.324,48.044 26.324,45.436 C26.324,42.838 24.775,41.971 22.871,41.971 L21.64,41.971 z M20.799,41.241 L22.908,41.241 C25.955,41.241 27.165,42.997 27.165,45.486 C27.165,48.57 25.105,49.753 22.286,49.753 L20.799,49.753 z" fill="#131614"/>
    <path d="M28.31,40.605 L29.08,40.605 L29.08,44.583 L29.105,44.583 C29.432,43.9 30.127,43.385 31.042,43.385 C32.715,43.385 33.164,44.497 33.164,46.035 L33.164,49.753 L32.398,49.753 L32.398,46.044 C32.398,44.973 32.189,44.045 30.92,44.045 C29.555,44.045 29.08,45.34 29.08,46.423 L29.08,49.753 L28.31,49.753 z" fill="#131614"/>
    <path d="M37.984,46.621 L37.764,46.621 C36.432,46.621 34.848,46.753 34.848,48.12 C34.848,48.936 35.433,49.24 36.141,49.24 C37.948,49.24 37.984,47.667 37.984,46.998 z M38.056,48.753 L38.032,48.753 C37.689,49.497 36.822,49.9 36.055,49.9 C34.286,49.9 34.005,48.705 34.005,48.144 C34.005,46.06 36.225,45.963 37.835,45.963 L37.984,45.963 L37.984,45.643 C37.984,44.583 37.605,44.046 36.566,44.046 C35.92,44.046 35.311,44.192 34.738,44.557 L34.738,43.814 C35.213,43.583 36.017,43.386 36.566,43.386 C38.103,43.386 38.751,44.084 38.751,45.704 L38.751,48.45 C38.751,48.95 38.751,49.327 38.81,49.754 L38.056,49.754 z" fill="#131614"/>
    <path d="M42.506,44.046 C41.105,44.046 40.665,45.51 40.665,46.645 C40.665,47.779 41.144,49.24 42.506,49.24 C43.972,49.24 44.349,47.852 44.349,46.645 C44.349,45.437 43.972,44.046 42.506,44.046 M39.898,40.606 L40.665,40.606 L40.665,44.583 L40.692,44.583 C40.799,44.277 41.411,43.386 42.63,43.386 C44.458,43.386 45.194,44.752 45.194,46.645 C45.194,48.484 44.337,49.9 42.63,49.9 C41.74,49.9 41.105,49.559 40.692,48.767 L40.665,48.767 L40.665,49.754 L39.898,49.754 z" fill="#131614"/>
    <path d="M46.142,43.534 L46.913,43.534 L46.913,49.754 L46.142,49.754 z M46.912,41.876 L46.141,41.876 L46.141,40.85 L46.912,40.85 z" fill="#131614"/>
    <path d="M48.36,49.022 L50.314,46.864 C51.336,45.731 52.361,44.46 52.361,43.425 C52.361,42.522 51.705,41.887 50.861,41.887 C50.092,41.887 49.485,42.107 48.814,42.496 L48.667,41.728 C49.289,41.424 50.118,41.157 50.812,41.157 C52.193,41.157 53.276,41.851 53.276,43.385 C53.276,44.656 52.031,46.132 50.936,47.34 L49.398,49.022 L53.471,49.022 L53.471,49.753 L48.36,49.753 z" fill="#131614"/>
    <path d="M55.362,45.496 C55.362,46.912 55.546,49.108 57.313,49.108 C59.082,49.108 59.267,46.912 59.267,45.496 C59.267,44.084 59.082,41.888 57.313,41.888 C55.546,41.888 55.362,44.084 55.362,45.496 M60.107,45.496 C60.107,47.279 59.742,49.842 57.313,49.842 C54.884,49.842 54.522,47.279 54.522,45.496 C54.522,43.51 55.046,41.157 57.313,41.157 C59.583,41.157 60.107,43.51 60.107,45.496" fill="#131614"/>
    <path d="M62.913,41.241 L63.667,41.241 L63.667,49.754 L62.826,49.754 L62.826,42.193 L61.447,43.399 L60.985,42.851 z" fill="#131614"/>
    <path d="M70.118,41.971 L65.754,41.971 L65.754,41.241 L70.948,41.241 L70.948,41.971 L67.655,49.753 L66.729,49.753 z" fill="#131614"/>
    <path d="M12.955,57.52 L12.624,57.52 L12.624,57.17 L12.955,57.17 z M12.403,57.52 L12.07,57.52 L12.07,57.17 L12.403,57.17 z M14.841,55.567 L14.841,55.856 L14.479,55.856 C14.356,55.856 14.24,55.807 14.131,55.707 C14.028,55.607 13.963,55.48 13.95,55.324 C13.928,55.068 13.893,54.874 13.833,54.754 C13.741,54.56 13.591,54.464 13.384,54.464 C13.235,54.46 13.11,54.511 13.006,54.622 C12.907,54.729 12.857,54.862 12.857,55.014 L13.663,55.014 L13.676,55.567 C13.676,55.918 13.559,56.214 13.325,56.465 C13.094,56.71 12.813,56.834 12.484,56.834 C12.155,56.834 11.877,56.71 11.641,56.465 C11.408,56.214 11.292,55.918 11.292,55.564 C11.286,55.45 11.281,55.271 11.272,55.014 L11.584,55.014 C11.584,55.107 11.587,55.292 11.593,55.567 C11.593,55.832 11.679,56.057 11.854,56.242 C12.029,56.426 12.24,56.523 12.484,56.523 C12.732,56.523 12.939,56.426 13.113,56.237 C13.29,56.049 13.376,55.824 13.376,55.557 L13.366,55.302 L12.528,55.302 C12.528,54.544 12.816,54.168 13.387,54.168 C13.72,54.168 13.96,54.316 14.101,54.618 C14.166,54.757 14.215,54.982 14.247,55.283 C14.262,55.442 14.401,55.567 14.532,55.567 z" fill="#131614"/>
    <path d="M15.866,56.516 L15.533,56.516 L15.533,56.171 L15.866,56.171 z M16.668,55.856 L16.267,55.856 C16.131,55.856 16.02,55.797 15.925,55.683 C15.87,55.621 15.834,55.557 15.814,55.49 C15.726,55.711 15.496,55.841 15.25,55.856 L14.749,55.856 L14.749,55.567 L15.165,55.567 C15.246,55.567 15.321,55.544 15.392,55.499 C15.489,55.437 15.533,55.356 15.533,55.252 C15.542,55.324 15.542,54.977 15.528,54.211 L15.839,54.211 C15.839,54.501 15.843,54.783 15.848,55.068 C15.854,55.226 15.899,55.351 15.987,55.447 C16.063,55.525 16.151,55.567 16.235,55.567 L16.668,55.567 L16.668,55.643 L16.668,55.783 z" fill="#131614"/>
    <path d="M18.63,53.852 L18.298,53.852 L18.298,53.505 L18.63,53.505 z M19.346,55.564 C19.342,55.36 19.315,55.188 19.267,55.043 C19.162,54.685 18.966,54.501 18.69,54.482 C18.14,54.446 17.703,54.807 17.375,55.564 z M19.657,55.856 L16.56,55.856 L16.56,55.567 L17.06,55.567 L17.052,53.188 L17.36,53.188 L17.325,55.194 C17.499,54.807 17.744,54.528 18.055,54.357 C18.278,54.235 18.491,54.185 18.694,54.208 C19.075,54.249 19.346,54.446 19.499,54.802 C19.604,55.048 19.657,55.401 19.657,55.856" fill="#131614"/>
    <path d="M21.401,55.566 L21.401,54.814 C21.401,54.548 21.27,54.414 21.041,54.414 C20.92,54.414 20.82,54.463 20.734,54.567 C20.639,54.679 20.585,54.833 20.585,55.026 C20.585,55.328 20.753,55.566 21.018,55.566 z M22.345,55.855 L21.66,55.855 C21.522,56.413 21.114,56.784 20.541,56.832 C20.513,56.772 20.466,56.683 20.41,56.551 C20.634,56.551 20.833,56.489 21,56.358 C21.158,56.233 21.274,56.066 21.341,55.855 L20.936,55.855 C20.729,55.855 20.564,55.778 20.433,55.621 C20.302,55.462 20.248,55.27 20.248,55.047 C20.254,54.756 20.351,54.536 20.526,54.382 C20.667,54.26 20.829,54.205 21.008,54.205 C21.476,54.205 21.711,54.442 21.711,54.913 L21.711,55.566 L22.345,55.566 z" fill="#131614"/>
    <path d="M23.077,56.516 L22.744,56.516 L22.744,56.171 L23.077,56.171 z M23.343,55.271 C23.343,55.63 23.124,55.856 22.731,55.856 L22.231,55.856 L22.231,55.567 L22.727,55.567 C22.901,55.567 23.03,55.463 23.03,55.26 C23.03,55.302 23.026,54.955 23.017,54.211 L23.327,54.211 C23.338,54.924 23.343,55.274 23.343,55.271" fill="#131614"/>
    <path d="M24.26,55.855 L23.95,55.855 L23.928,52.941 L24.239,52.941 z M24.31,52.664 L23.587,52.664 L23.668,52.525 L23.869,52.525 C23.819,52.46 23.794,52.389 23.794,52.309 C23.794,52.127 23.923,51.994 24.089,51.994 C24.176,51.994 24.243,52.029 24.296,52.096 L24.23,52.195 C24.189,52.146 24.144,52.12 24.096,52.12 C24.001,52.12 23.956,52.187 23.956,52.328 C23.956,52.456 24.018,52.525 24.144,52.525 L24.31,52.525 z" fill="#131614"/>
    <path d="M29.751,53.521 L29.418,53.521 L29.418,53.167 L29.751,53.167 z M29.201,53.521 L28.869,53.521 L28.869,53.167 L29.201,53.167 z M29.692,55.08 L29.689,54.414 C29.582,54.23 29.441,54.136 29.267,54.136 C29.151,54.136 29.059,54.185 28.987,54.285 C28.902,54.388 28.86,54.541 28.86,54.735 C28.86,54.838 28.874,54.911 28.898,54.958 C28.933,55.043 29.004,55.08 29.113,55.08 z M30.643,55.856 L30.189,55.856 C29.865,55.856 29.706,55.69 29.712,55.36 L29.051,55.36 C28.709,55.36 28.534,55.144 28.534,54.716 C28.534,54.434 28.61,54.218 28.758,54.068 C28.874,53.949 29.019,53.883 29.184,53.883 C29.398,53.883 29.588,53.995 29.68,54.141 L29.689,54.141 L29.689,53.921 L29.999,53.921 L29.999,55.341 C29.999,55.49 30.062,55.567 30.189,55.567 L30.643,55.567 z" fill="#131614"/>
    <path d="M31.981,56.523 L31.651,56.523 L31.651,56.174 L31.981,56.174 z M31.432,56.523 L31.094,56.523 L31.094,56.174 L31.432,56.174 z M32.485,55.856 L32.085,55.856 C31.95,55.856 31.837,55.797 31.742,55.683 C31.689,55.621 31.651,55.557 31.63,55.49 C31.543,55.711 31.316,55.841 31.068,55.856 L30.478,55.856 L30.478,55.567 L30.978,55.567 C31.063,55.567 31.14,55.544 31.211,55.499 C31.305,55.437 31.35,55.356 31.35,55.252 C31.36,55.324 31.36,54.977 31.347,54.211 L31.655,54.211 C31.655,54.501 31.662,54.783 31.666,55.068 C31.671,55.226 31.717,55.351 31.807,55.447 C31.883,55.525 31.969,55.567 32.053,55.567 L32.485,55.567 L32.485,55.643 L32.485,55.783 z" fill="#131614"/>
    <path d="M34.066,55.418 C34.066,55.233 34.023,55.08 33.927,54.967 C33.84,54.874 33.738,54.828 33.617,54.828 C33.49,54.828 33.386,54.874 33.31,54.967 C33.225,55.075 33.184,55.226 33.184,55.418 C33.184,55.606 33.234,55.757 33.328,55.864 C33.414,55.958 33.518,56.01 33.637,56.01 C33.76,56.01 33.864,55.958 33.939,55.864 C34.025,55.757 34.066,55.606 34.066,55.418 M34.845,55.855 L34.3,55.855 C34.178,56.13 33.959,56.265 33.634,56.265 C33.326,56.265 33.098,56.13 32.962,55.855 L32.378,55.855 L32.378,55.566 L32.865,55.566 C32.861,55.518 32.856,55.468 32.856,55.418 C32.856,54.897 33.134,54.577 33.603,54.577 C33.84,54.577 34.034,54.661 34.178,54.838 C34.314,55.001 34.382,55.193 34.382,55.418 C34.382,55.468 34.382,55.518 34.378,55.566 L34.837,55.566 z" fill="#131614"/>
    <path d="M35.668,55.27 C35.668,55.629 35.454,55.855 35.059,55.855 L34.764,55.855 L34.764,55.566 L35.053,55.566 C35.23,55.566 35.359,55.462 35.359,55.259 C35.359,54.976 35.354,54.588 35.351,54.104 C35.347,53.542 35.341,53.156 35.341,52.941 L35.651,52.941 C35.651,53.148 35.655,53.535 35.662,54.109 C35.666,54.595 35.668,54.981 35.668,55.27" fill="#131614"/>
    <path d="M37.13,55.855 L36.74,55.855 C36.614,55.855 36.507,55.809 36.423,55.723 C36.322,55.629 36.27,55.496 36.27,55.324 L36.255,52.941 L36.567,52.941 L36.578,55.283 C36.578,55.45 36.651,55.543 36.792,55.566 L37.13,55.566 z" fill="#131614"/>
    <path d="M39.343,54.51 C39.264,54.46 39.187,54.41 39.111,54.362 C38.916,54.271 38.7,54.227 38.461,54.227 C38.256,54.227 38.08,54.249 37.931,54.289 C37.826,54.321 37.702,54.373 37.562,54.45 C37.913,54.544 38.26,54.823 38.596,55.288 C38.9,55.085 39.151,54.823 39.343,54.51 M39.903,55.856 L39.012,55.856 C38.83,55.856 38.677,55.783 38.552,55.638 C38.286,55.783 38.028,55.856 37.777,55.856 L37.036,55.856 L37.036,55.567 L37.773,55.567 C37.968,55.567 38.169,55.518 38.376,55.418 C38.197,55.197 38.043,55.036 37.918,54.937 C37.724,54.787 37.523,54.702 37.305,54.689 L37.305,54.321 C37.572,54.068 37.947,53.943 38.445,53.949 C38.773,53.951 39.068,54.024 39.34,54.172 C39.505,54.258 39.627,54.352 39.708,54.446 C39.489,54.869 39.179,55.219 38.773,55.506 C38.821,55.539 38.882,55.564 38.957,55.567 L39.086,55.567 L39.903,55.567 z" fill="#131614"/>
    <path d="M40.714,55.27 C40.714,55.629 40.498,55.855 40.103,55.855 L39.809,55.855 L39.809,55.566 L40.099,55.566 C40.274,55.566 40.403,55.462 40.403,55.259 C40.403,54.976 40.399,54.588 40.394,54.104 C40.389,53.542 40.386,53.156 40.386,52.941 L40.695,52.941 C40.695,53.148 40.701,53.535 40.704,54.109 C40.709,54.595 40.714,54.981 40.714,55.27" fill="#131614"/>
    <path d="M41.633,55.855 L41.322,55.855 L41.299,52.941 L41.61,52.941 z" fill="#131614"/>
    <path d="M44.77,54.211 L44.439,54.211 L44.439,53.866 L44.77,53.866 z M44.222,54.211 L43.889,54.211 L43.889,53.866 L44.222,53.866 z M45.743,55.506 C45.707,55.72 45.55,55.856 45.329,55.856 L43.951,55.856 C43.606,55.856 43.343,55.717 43.163,55.437 C43.015,55.206 42.939,54.906 42.926,54.532 L42.913,54.211 L43.179,54.211 L43.192,54.532 C43.204,54.927 43.309,55.215 43.507,55.393 C43.637,55.509 43.785,55.567 43.951,55.567 L45.251,55.567 C45.373,55.567 45.431,55.48 45.431,55.317 C45.431,55.215 45.428,54.846 45.413,54.211 L45.735,54.211 C45.738,54.443 45.743,54.874 45.743,55.506" fill="#131614"/>
    <path d="M46.661,55.855 L46.352,55.855 L46.33,52.941 L46.64,52.941 z" fill="#131614"/>
    <path d="M47.892,55.436 C47.892,55.828 47.784,56.149 47.572,56.403 C47.357,56.66 47.073,56.803 46.722,56.832 C46.692,56.777 46.646,56.683 46.588,56.551 C46.879,56.551 47.114,56.449 47.299,56.245 C47.482,56.041 47.576,55.788 47.576,55.487 L47.575,54.217 L47.882,54.217 z" fill="#131614"/>
    <path d="M49.353,55.855 L48.964,55.855 C48.837,55.855 48.731,55.809 48.645,55.723 C48.546,55.629 48.492,55.496 48.492,55.324 L48.476,52.941 L48.791,52.941 L48.803,55.283 C48.803,55.45 48.876,55.543 49.014,55.566 L49.353,55.566 z" fill="#131614"/>
    <path d="M51.487,55.566 C51.471,55.355 51.408,55.156 51.304,54.962 C51.213,54.78 51.101,54.661 50.981,54.603 C51.07,54.734 51.117,54.887 51.117,55.061 C51.117,55.27 51.07,55.436 50.981,55.566 z M50.819,55.032 C50.819,54.856 50.78,54.715 50.693,54.613 C50.622,54.521 50.531,54.479 50.428,54.479 C50.321,54.479 50.234,54.521 50.167,54.613 C50.094,54.712 50.059,54.85 50.059,55.032 C50.059,55.206 50.097,55.346 50.179,55.446 C50.258,55.539 50.346,55.587 50.45,55.587 C50.661,55.587 50.819,55.392 50.819,55.032 M52.553,55.855 L49.209,55.855 L49.204,55.566 L49.937,55.566 C49.815,55.431 49.758,55.263 49.758,55.061 C49.758,54.833 49.815,54.64 49.932,54.488 C49.815,54.519 49.708,54.559 49.614,54.618 L49.508,54.395 C49.8,54.276 50.102,54.211 50.409,54.211 C51.22,54.211 51.684,54.661 51.8,55.566 L52.553,55.566 z" fill="#131614"/>
    <path d="M54.139,55.418 C54.139,55.233 54.094,55.08 53.998,54.967 C53.913,54.874 53.811,54.828 53.689,54.828 C53.563,54.828 53.459,54.874 53.382,54.967 C53.296,55.075 53.257,55.226 53.257,55.418 C53.257,55.606 53.306,55.757 53.4,55.864 C53.486,55.958 53.59,56.01 53.711,56.01 C53.833,56.01 53.936,55.958 54.012,55.864 C54.098,55.757 54.139,55.606 54.139,55.418 M54.916,55.855 L54.373,55.855 C54.251,56.13 54.031,56.265 53.706,56.265 C53.397,56.265 53.172,56.13 53.031,55.855 L52.451,55.855 L52.451,55.566 L52.937,55.566 C52.932,55.518 52.928,55.468 52.928,55.418 C52.928,54.897 53.207,54.577 53.675,54.577 C53.913,54.577 54.106,54.661 54.251,54.838 C54.386,55.001 54.453,55.193 54.453,55.418 C54.453,55.468 54.453,55.518 54.449,55.566 L54.91,55.566 z" fill="#131614"/>
    <path d="M55.742,55.27 C55.742,55.629 55.525,55.855 55.132,55.855 L54.838,55.855 L54.838,55.566 L55.125,55.566 C55.302,55.566 55.431,55.462 55.431,55.259 C55.431,54.976 55.427,54.588 55.422,54.104 C55.417,53.542 55.413,53.156 55.413,52.941 L55.725,52.941 C55.725,53.148 55.728,53.535 55.733,54.109 C55.737,54.595 55.742,54.981 55.742,55.27" fill="#131614"/>
    <path d="M56.663,55.855 L56.351,55.855 L56.329,52.941 L56.639,52.941 z" fill="#131614"/>
    <path d="M59.155,53.521 L58.822,53.521 L58.822,53.167 L59.155,53.167 z M58.607,53.521 L58.274,53.521 L58.274,53.167 L58.607,53.167 z M59.097,55.08 L59.092,54.414 C58.985,54.23 58.847,54.136 58.67,54.136 C58.556,54.136 58.462,54.185 58.389,54.285 C58.307,54.388 58.264,54.541 58.264,54.735 C58.264,54.838 58.277,54.911 58.3,54.958 C58.337,55.043 58.407,55.08 58.515,55.08 z M60.045,55.856 L59.592,55.856 C59.269,55.856 59.11,55.69 59.113,55.36 L58.452,55.36 C58.11,55.36 57.939,55.144 57.939,54.716 C57.939,54.434 58.014,54.218 58.162,54.068 C58.277,53.949 58.422,53.883 58.589,53.883 C58.8,53.883 58.993,53.995 59.084,54.141 L59.092,54.141 L59.092,53.921 L59.403,53.921 L59.403,55.341 C59.403,55.49 59.466,55.567 59.592,55.567 L60.045,55.567 z" fill="#131614"/>
    <path d="M61.587,53.547 L61.254,53.547 L61.254,53.2 L61.587,53.2 z M61.597,54.673 C61.597,54.52 61.56,54.393 61.485,54.289 C61.4,54.176 61.286,54.118 61.146,54.118 C61.006,54.118 60.898,54.176 60.815,54.289 C60.736,54.393 60.7,54.52 60.7,54.673 C60.7,54.869 60.764,55.044 60.894,55.198 C60.999,55.328 61.083,55.393 61.152,55.393 C61.221,55.393 61.309,55.328 61.412,55.198 C61.534,55.044 61.597,54.869 61.597,54.673 M61.033,53.547 L60.7,53.547 L60.7,53.2 L61.033,53.2 z M62.298,55.567 L62.298,55.856 L61.83,55.856 C61.61,55.856 61.385,55.807 61.152,55.702 C60.923,55.807 60.696,55.856 60.471,55.856 L59.956,55.856 L59.956,55.567 L60.485,55.567 C60.669,55.567 60.799,55.557 60.866,55.544 C60.7,55.432 60.575,55.288 60.489,55.107 C60.418,54.958 60.382,54.815 60.382,54.673 C60.382,54.424 60.458,54.23 60.611,54.086 C60.754,53.955 60.935,53.888 61.146,53.888 C61.363,53.888 61.543,53.955 61.687,54.086 C61.843,54.23 61.921,54.424 61.921,54.673 C61.921,54.815 61.883,54.958 61.815,55.107 C61.727,55.288 61.601,55.432 61.434,55.544 C61.501,55.557 61.632,55.567 61.817,55.567 z" fill="#131614"/>
    <path d="M63.073,56.516 L62.738,56.516 L62.738,56.171 L63.073,56.171 z M63.339,55.271 C63.339,55.63 63.123,55.856 62.728,55.856 L62.228,55.856 L62.228,55.567 L62.724,55.567 C62.9,55.567 63.027,55.463 63.027,55.26 C63.027,55.302 63.025,54.955 63.015,54.211 L63.325,54.211 C63.336,54.924 63.339,55.274 63.339,55.271" fill="#131614"/>
    <path d="M64.798,55.855 L64.412,55.855 C64.284,55.855 64.177,55.809 64.091,55.723 C63.992,55.629 63.94,55.496 63.94,55.324 L63.925,52.941 L64.236,52.941 L64.252,55.283 C64.252,55.45 64.321,55.543 64.461,55.566 L64.798,55.566 z" fill="#131614"/>
    <path d="M68.947,55.566 L68.947,55.855 L68.497,55.855 C68.296,55.855 68.145,55.74 68.053,55.517 C67.981,55.764 67.751,55.918 67.48,55.918 C67.327,55.918 67.207,55.891 67.121,55.84 C67.022,55.783 66.94,55.689 66.874,55.553 C66.793,55.791 66.603,55.91 66.311,55.91 C66.163,55.91 66.039,55.885 65.956,55.84 C65.884,55.798 65.82,55.74 65.765,55.658 L65.765,55.855 L64.747,55.855 L64.747,55.566 L65.46,55.566 L65.46,54.864 C65.46,54.725 65.46,54.548 65.457,54.341 L65.765,54.341 L65.765,55.129 C65.77,55.462 65.95,55.629 66.297,55.629 C66.471,55.629 66.603,55.524 66.603,55.324 C66.603,55.228 66.599,54.9 66.59,54.341 L66.9,54.341 C66.9,54.51 66.9,54.775 66.905,55.129 C66.908,55.295 66.964,55.421 67.066,55.508 C67.163,55.589 67.293,55.629 67.455,55.629 C67.632,55.629 67.772,55.52 67.772,55.324 C67.772,55.237 67.769,54.869 67.761,54.211 L68.071,54.211 C68.071,54.406 68.074,54.702 68.08,55.106 C68.084,55.249 68.133,55.364 68.224,55.453 C68.301,55.53 68.384,55.566 68.472,55.566 z" fill="#131614"/>
    <path d="M70.514,55.003 C70.514,54.818 70.463,54.673 70.368,54.56 C70.284,54.464 70.181,54.414 70.057,54.414 C69.938,54.414 69.835,54.464 69.757,54.56 C69.673,54.661 69.627,54.812 69.627,55.003 C69.627,55.193 69.677,55.341 69.773,55.45 C69.856,55.544 69.96,55.594 70.081,55.594 C70.207,55.594 70.307,55.544 70.382,55.45 C70.468,55.347 70.514,55.197 70.514,55.003 M70.82,55.012 C70.82,55.535 70.546,55.856 70.076,55.856 L68.823,55.856 L68.823,55.566 L69.474,55.566 C69.353,55.408 69.289,55.226 69.289,55.012 C69.289,54.488 69.574,54.162 70.041,54.162 C70.281,54.162 70.474,54.253 70.622,54.434 C70.752,54.589 70.82,54.783 70.82,55.012" fill="#131614"/>
    <path d="M0.052,55.719 L0.834,54.852 C1.049,54.62 1.239,54.384 1.402,54.143 C1.566,53.905 1.65,53.681 1.656,53.473 C1.654,53.286 1.596,53.138 1.485,53.027 C1.374,52.916 1.231,52.86 1.054,52.856 C0.761,52.86 0.487,52.941 0.233,53.1 L0.174,52.792 C0.304,52.727 0.447,52.672 0.6,52.626 C0.749,52.583 0.895,52.563 1.034,52.563 C1.322,52.563 1.557,52.634 1.739,52.778 C1.925,52.924 2.02,53.152 2.024,53.458 C2.017,53.715 1.915,53.982 1.72,54.255 C1.528,54.532 1.316,54.795 1.084,55.043 L0.468,55.719 L2.102,55.719 L2.102,56.012 L0.052,56.012 z" fill="#000105"/>
    <path d="M3.888,52.855 C3.711,52.859 3.573,52.906 3.472,52.998 C3.364,53.091 3.284,53.214 3.232,53.364 C3.179,53.514 3.146,53.67 3.129,53.834 C3.113,54.003 3.105,54.161 3.105,54.303 C3.105,54.447 3.113,54.602 3.129,54.768 C3.146,54.931 3.179,55.088 3.232,55.238 C3.284,55.388 3.364,55.508 3.472,55.6 C3.573,55.702 3.711,55.752 3.888,55.752 C4.067,55.752 4.208,55.702 4.314,55.6 C4.417,55.508 4.496,55.388 4.548,55.238 C4.6,55.088 4.636,54.931 4.656,54.768 C4.665,54.602 4.67,54.447 4.67,54.303 C4.67,54.161 4.665,54.003 4.656,53.834 C4.636,53.67 4.6,53.514 4.548,53.364 C4.496,53.214 4.417,53.091 4.314,52.998 C4.208,52.906 4.067,52.859 3.888,52.855 M3.888,52.562 C4.116,52.565 4.303,52.617 4.45,52.718 C4.597,52.823 4.711,52.959 4.792,53.129 C4.943,53.488 5.014,53.879 5.008,54.303 C5.008,54.483 4.996,54.672 4.974,54.871 C4.948,55.074 4.896,55.262 4.817,55.439 C4.742,55.615 4.629,55.758 4.48,55.869 C4.329,55.984 4.132,56.043 3.888,56.045 C3.65,56.043 3.456,55.984 3.31,55.869 C3.16,55.758 3.046,55.615 2.967,55.439 C2.893,55.262 2.84,55.074 2.811,54.871 C2.779,54.672 2.764,54.483 2.767,54.303 C2.76,53.879 2.833,53.488 2.988,53.129 C3.069,52.959 3.185,52.823 3.334,52.718 C3.481,52.617 3.665,52.565 3.888,52.562" fill="#000105"/>
    <path d="M6.378,52.596 L6.681,52.596 L6.681,56.011 L6.344,56.011 L6.344,52.977 L5.791,53.461 L5.605,53.242 z" fill="#000105"/>
    <path d="M9.509,52.889 L7.762,52.889 L7.762,52.596 L9.847,52.596 L9.847,52.889 L8.526,56.011 L8.154,56.011 z" fill="#000105"/>
    <path d="M27.011,54.764 C27.011,54.83 27.003,54.876 26.988,54.902 C26.973,54.927 26.95,54.94 26.922,54.94 L25.862,54.94 C25.831,54.94 25.809,54.926 25.793,54.9 C25.778,54.874 25.771,54.828 25.771,54.764 C25.771,54.701 25.778,54.656 25.793,54.63 C25.809,54.605 25.831,54.592 25.862,54.592 L26.922,54.592 C26.936,54.592 26.948,54.595 26.959,54.6 C26.97,54.605 26.979,54.615 26.987,54.629 C26.994,54.643 27,54.661 27.004,54.683 C27.009,54.705 27.011,54.732 27.011,54.764" fill="#000105"/>
  </g>
</svg>
