<?xml version="1.0" encoding="UTF-8" standalone="no"?>
<!-- Created with Inkscape (http://www.inkscape.org/) -->

<svg
   xmlns:dc="http://purl.org/dc/elements/1.1/"
   xmlns:cc="http://creativecommons.org/ns#"
   xmlns:rdf="http://www.w3.org/1999/02/22-rdf-syntax-ns#"
   xmlns:svg="http://www.w3.org/2000/svg"
   xmlns="http://www.w3.org/2000/svg"
   xmlns:sodipodi="http://sodipodi.sourceforge.net/DTD/sodipodi-0.dtd"
   xmlns:inkscape="http://www.inkscape.org/namespaces/inkscape"
   width="101.25604mm"
   height="29.395208mm"
   viewBox="0 0 101.25604 29.395208"
   version="1.1"
   id="svg1262"
   inkscape:version="0.92.5 (2060ec1f9f, 2020-04-08)"
   sodipodi:docname="logo_text.svg">
  <defs
     id="defs1256" />
  <sodipodi:namedview
     id="base"
     pagecolor="#ffffff"
     bordercolor="#666666"
     borderopacity="1.0"
     inkscape:pageopacity="0.0"
     inkscape:pageshadow="2"
     inkscape:zoom="0.35"
     inkscape:cx="-332.93572"
     inkscape:cy="495.55001"
     inkscape:document-units="mm"
     inkscape:current-layer="layer1"
     showgrid="false"
     fit-margin-top="0"
     fit-margin-left="0"
     fit-margin-right="0"
     fit-margin-bottom="0"
     inkscape:window-width="1366"
     inkscape:window-height="705"
     inkscape:window-x="-8"
     inkscape:window-y="-8"
     inkscape:window-maximized="1" />
  <metadata
     id="metadata1259">
    <rdf:RDF>
      <cc:Work
         rdf:about="">
        <dc:format>image/svg+xml</dc:format>
        <dc:type
           rdf:resource="http://purl.org/dc/dcmitype/StillImage" />
        <dc:title></dc:title>
      </cc:Work>
    </rdf:RDF>
  </metadata>
  <g
     inkscape:label="レイヤー 1"
     inkscape:groupmode="layer"
     id="layer1"
     transform="translate(-58.229122,-250.5524)">
    <g
       style="enable-background:new"
       id="text6357-6-7-1-6-1-7"
       transform="matrix(0.26458333,0,0,0.26458333,13.620373,389.43219)">
      <path
         id="path11504"
         inkscape:connector-curvature="0"
         class="st2"
         d="m 190.5,-524.8 h 47.4 l -4.4,21.9 h -19 l -4.1,20.7 h 17.8 l -4.2,20.8 h -17.8 l -4.8,24 h 20.9 l -4.4,21.9 h -49.3 z"
         style="fill:#ffffff" />
      <path
         id="path11506"
         inkscape:connector-curvature="0"
         class="st2"
         d="m 299.6,-505.1 -30.6,89.6 h -35.6 l 4.2,-89.6 H 262 l -5.4,65.3 c 1.5,-4.8 4.9,-16.5 10,-35.1 2.9,-10.4 5.8,-20.5 8.7,-30.2 z"
         style="fill:#ffffff" />
      <path
         id="path11508"
         inkscape:connector-curvature="0"
         class="st2"
         d="M 356.3,-458.7 H 321 l -3.8,19.4 c -0.8,4.1 -1.1,6.7 -0.7,7.8 0.4,1.2 1.4,1.8 3,1.8 2.1,0 3.6,-0.8 4.6,-2.3 1,-1.6 2,-4.6 2.9,-9 l 2.4,-11.8 h 25.9 l -1.4,6.6 c -1.1,5.5 -2.3,9.8 -3.6,12.8 -1.3,3 -3.6,6.1 -6.8,9.5 -3.2,3.4 -7,5.9 -11.3,7.6 -4.3,1.7 -9.4,2.5 -15.3,2.5 -5.8,0 -10.7,-0.8 -14.8,-2.5 -4.1,-1.7 -7,-3.9 -8.9,-6.8 -1.8,-2.9 -2.9,-6.1 -3.2,-9.6 -0.2,-3.5 0.3,-8.6 1.6,-15.3 l 5.3,-26.1 c 1.6,-7.8 3.9,-14 6.9,-18.5 3,-4.5 7.2,-8 12.4,-10.4 5.3,-2.4 11.1,-3.6 17.3,-3.6 7.7,0 13.7,1.5 18,4.4 4.4,2.9 7.1,6.7 8.2,11.5 1.1,4.8 0.7,11.5 -1,20.2 z m -24.5,-14.6 1.4,-6.5 c 0.9,-4.6 1.2,-7.6 1,-9 -0.2,-1.3 -1.1,-2 -2.6,-2 -1.9,0 -3.2,0.6 -3.8,1.8 -0.7,1.1 -1.5,4.2 -2.5,9.2 l -1.4,6.5 z"
         style="fill:#ffffff" />
      <path
         id="path11510"
         inkscape:connector-curvature="0"
         class="st2"
         d="m 402.2,-505.1 -2.1,8.2 c 2.7,-3.3 5.6,-5.7 8.7,-7.4 3.2,-1.7 6.7,-2.5 10.4,-2.5 4.7,0 8.3,1.1 10.8,3.3 2.6,2.2 3.9,5 4.1,8.4 0.2,3.3 -0.5,8.9 -2.1,16.7 l -12.6,62.8 h -27.3 l 12.4,-62 c 1.2,-6.2 1.8,-9.9 1.6,-11.3 -0.1,-1.4 -1.1,-2 -3,-2 -1.9,0 -3.3,0.8 -4.1,2.4 -0.8,1.5 -1.9,5.7 -3.2,12.4 l -12.1,60.5 h -27.3 l 17.9,-89.6 z"
         style="fill:#ffffff" />
      <path
         id="path11512"
         inkscape:connector-curvature="0"
         class="st2"
         d="m 478,-517 -2.8,14.1 h 7.4 l -2.8,14.2 h -7.4 l -9.6,47.9 c -1.2,5.9 -1.5,9.2 -1.1,9.9 0.5,0.7 3,1 7.4,1 l -2.9,14.4 h -11 c -6.2,0 -10.6,-0.2 -13.2,-0.7 -2.5,-0.5 -4.6,-1.7 -6.3,-3.6 -1.7,-1.9 -2.5,-4 -2.5,-6.4 0,-2.4 0.9,-8.1 2.6,-17 l 9.1,-45.5 H 439 l 2.8,-14.2 h 5.9 l 2.8,-14.1 z"
         style="fill:#ffffff" />
      <path
         id="path11514"
         inkscape:connector-curvature="0"
         class="st2"
         d="m 551.3,-524.8 -19.6,48.3 2.8,61 h -26.3 c -1,-10.9 -1.2,-24.1 -0.7,-39.8 -2.1,6.9 -4.6,14.2 -7.4,21.9 l -6.3,17.8 h -27.7 l 22.5,-61 -0.6,-48.3 h 27.5 c -0.1,3 -0.2,8 -0.1,15.1 0.1,5.4 0.1,10.3 0,14.7 l 12,-29.8 h 23.9 z"
         style="fill:#ffffff" />
    </g>
  </g>
</svg>
