<?xml version="1.0" encoding="UTF-8"?>
<!DOCTYPE svg PUBLIC "-//W3C//DTD SVG 1.1//EN" "http://www.w3.org/Graphics/SVG/1.1/DTD/svg11.dtd">
<svg xmlns="http://www.w3.org/2000/svg" width="80" height="33" viewBox="0, 0, 80, 33"><path d="M34.282 14.312v-.141h.143-.143v.141h-.141V2.513h-4.41V.652h10.887v1.861h-4.425v11.799zm13.161 0h-.098L42.053.652h2.223l3.511 9.809c.217.607.407 1.184.569 1.731.177-.577.37-1.154.587-1.732L52.592.652h2.112l-5.346 13.66h-1.915m25.427 0v-.141h.142-.142v.141h-.143V2.521H68.32V.652h10.886v1.869h-4.424v11.791zm-50.005 0c-.818 0-1.545-.077-2.182-.234-.637-.153-1.184-.384-1.64-.688-.459-.307-.877-.724-1.256-1.249-.382-.532-.693-1.194-.932-1.991-.243-.802-.363-1.714-.363-2.741 0-1.207.177-2.283.533-3.232.357-.947.901-1.731 1.624-2.342.561-.478 1.237-.808 2.024-.988.565-.133 1.366-.195 2.412-.195h4.75v1.863H25.78v-.002h-2.669c-1.043-.001-1.794.092-2.237.262-.623.243-1.157.723-1.606 1.453-.44.719-.669 1.769-.669 3.153 0 .997.117 1.844.346 2.534.23.692.546 1.236.945 1.636.281.279.658.5 1.144.657.449.148 1.083.228 1.88.238l.14.003v.007h4.781v1.856zM56.147 2.521V.652h9.956v1.869H58.2zm0 11.791V6.327h9.454v1.852H58.2v4.272h8.213v1.861zM14.226 4.834c-.155-.636-.384-1.186-.69-1.643-.307-.457-.724-.876-1.248-1.254-.53-.382-1.196-.692-1.99-.933C9.496.762 8.58.642 7.554.642c-1.205 0-2.283.176-3.23.534-.948.357-1.731.899-2.343 1.623-.477.561-.807 1.238-.988 2.022-.132.567-.195 1.367-.195 2.414v7.066h1.865v-2.052h-.002V8.108h8.442V6.394H2.686c.039-.603.118-1.063.238-1.372.241-.621.717-1.156 1.451-1.603.716-.44 1.767-.668 3.153-.668.997 0 1.844.116 2.534.345.693.228 1.234.544 1.636.946.279.278.501.658.659 1.142.146.45.226 1.082.234 1.88l.001.14h.009v7.097h1.856V7.016c0-.817-.076-1.545-.231-2.182" fill="#5F181D"/><path d="M43.667 21.853a.15.15 0 0 1 .12.062.212.212 0 0 1 .049.146.203.203 0 0 1-.05.141.146.146 0 0 1-.119.063.157.157 0 0 1-.121-.059.217.217 0 0 1-.051-.145c0-.059.018-.107.051-.146a.152.152 0 0 1 .121-.062m-.418.084c.048 0 .087.02.122.061.033.038.05.087.05.145a.227.227 0 0 1-.049.145.156.156 0 0 1-.123.061.153.153 0 0 1-.121-.061.228.228 0 0 1-.05-.145c0-.058.018-.105.05-.145a.153.153 0 0 1 .121-.061m.83-.869c0-.039-.048-.082-.137-.132-.289-.152-.434-.236-.441-.239a1.012 1.012 0 0 1-.231-.28.709.709 0 0 1-.094-.357c0-.256.078-.463.238-.625a.702.702 0 0 1 1.037-.002.69.69 0 0 1 .232.503v.354h.149v.346h-.201c-.055 0-.109-.029-.16-.087a.278.278 0 0 1-.076-.189v-.41a.568.568 0 0 0-.127-.348c-.091-.12-.196-.178-.311-.178-.128 0-.239.057-.338.174a.656.656 0 0 0-.158.446c0 .106.026.202.074.293.058.1.149.194.271.278.084.057.228.129.436.21.128.055.195.111.195.171 0 .085-.05.176-.152.27-.107.1-.247.185-.423.247-.2.072-.414.108-.643.108-.209 0-.424-.066-.643-.203-.228-.136-.342-.274-.342-.413 0-.057.089-.155.264-.299a2.79 2.79 0 0 1 .451-.311v.054a5.84 5.84 0 0 0-.163.179c-.111.134-.166.233-.166.296 0 .089.073.194.221.319.147.122.28.183.399.183.181 0 .365-.043.555-.132.188-.09.284-.165.284-.226" fill="#3E3935"/><path d="M46.261 20.638l-1.43-.002v-.35l1.43.003zm1.43 0l-1.43-.002v-.35l1.43.003zm1.431 0l-1.431-.002v-.35l1.431.003zm1.43 0l-1.43-.002v-.35l1.43.003z" fill="#3E3935"/><path d="M51.984 20.638l-1.433-.002v-.35l1.433.003zm.715.43c.046 0 .086.021.12.061.033.041.05.089.05.148a.213.213 0 0 1-.05.141.153.153 0 0 1-.12.062.156.156 0 0 1-.12-.06.208.208 0 0 1-.051-.143c0-.059.016-.107.051-.148a.152.152 0 0 1 .12-.061m-.108-.779v-.556a.204.204 0 0 0-.011-.078c-.023-.068-.078-.102-.168-.102h-.071v-.102l.538-.114v.952h.268v.346h-1.163v-.346zm1.987.349l-1.431-.002v-.35l1.431.003zm1.43 0l-1.43-.002v-.35l1.43.003z" fill="#3E3935"/><path d="M57.431 18.7a.218.218 0 0 1-.048.144.157.157 0 0 1-.122.061.155.155 0 0 1-.119-.059.215.215 0 0 1-.051-.146c0-.056.017-.105.051-.147.03-.04.07-.061.119-.061.048 0 .087.021.122.061a.23.23 0 0 1 .048.147m.728 1.589a.27.27 0 0 0 .057.156c.039.051.079.079.122.079v.112h-2.331v-.347h1.864v-.304a.418.418 0 0 0-.139-.317.422.422 0 0 0-.29-.114h-.181a.525.525 0 0 0-.382.149.467.467 0 0 0-.155.354v.103h-.286v-1.817c0-.06-.016-.105-.045-.135a.188.188 0 0 0-.133-.044h-.07v-.103l.534-.114v1.534a.802.802 0 0 1 .239-.107c.089-.026.191-.037.304-.037h.175c.245 0 .425.053.54.163.117.106.177.269.177.485zm1.933.001h.27v.346h-.338a2.361 2.361 0 0 1-.344.659 1.752 1.752 0 0 1-.618.548v-.035a2.73 2.73 0 0 0 .488-.691c.17-.323.254-.585.254-.791v-.186a.679.679 0 0 0-.127-.416c-.085-.112-.186-.17-.303-.17a.343.343 0 0 0-.265.11.373.373 0 0 0-.094.257c0 .1.032.187.098.26a.304.304 0 0 0 .241.109h.309v.036a.824.824 0 0 1-.033.209l-.034.101h-.222a.686.686 0 0 1-.398-.125c-.163-.114-.244-.281-.244-.504 0-.199.07-.365.205-.495a.586.586 0 0 1 .413-.174c.226 0 .405.065.535.2.138.139.207.339.207.601z" fill="#3E3935"/><path d="M61.794 20.638l-1.432-.002v-.35l1.432.003z" fill="#3E3935"/><path d="M63.222 20.638l-1.429-.002v-.35l1.429.003z" fill="#3E3935"/><path d="M63.762 21.068c.046 0 .085.021.119.061a.22.22 0 0 1 .049.148.207.207 0 0 1-.049.141c-.034.041-.073.062-.119.062a.16.16 0 0 1-.123-.06.206.206 0 0 1-.049-.143c0-.059.014-.107.049-.148a.156.156 0 0 1 .123-.061m.07-.779v-.556a.25.25 0 0 0-.012-.078c-.021-.068-.077-.102-.167-.102h-.071v-.102l.537-.114v.952c0 .083.029.155.089.212.021.019.049.04.089.064v.07h-1.075v-.346zm1.442-2.489h-.568v-.169h.111l-.082-.204c.085-.089.14-.141.165-.159a.355.355 0 0 1 .219-.08h.089v.157a.308.308 0 0 0-.132.026.35.35 0 0 0-.115.095.648.648 0 0 0 .132.123.248.248 0 0 0 .137.042h.044zm.135 2.835h-.646v-.07a.543.543 0 0 0 .09-.062.288.288 0 0 0 .089-.214v-1.946c0-.06-.016-.106-.045-.135-.031-.03-.075-.044-.132-.044h-.072v-.103l.537-.114v2.342a.27.27 0 0 0 .09.212c.017.019.047.04.089.064zm2.704-2.143c.048 0 .087.021.121.061a.237.237 0 0 1 0 .291.153.153 0 0 1-.121.061.152.152 0 0 1-.118-.059.215.215 0 0 1-.052-.146c0-.056.018-.105.048-.147a.151.151 0 0 1 .122-.061m.175 2.144a1.395 1.395 0 0 1-.289.749 1.54 1.54 0 0 1-.601.458v-.036a1.868 1.868 0 0 0 .49-.691c.079-.197.117-.393.117-.591v-.792c0-.062-.014-.104-.044-.135-.031-.03-.075-.044-.132-.044h-.07v-.103l.533-.114v.952h.27v.347zm1.704.002l-1.43-.002v-.35l1.43.003zm1.43 0l-1.43-.002v-.35l1.43.003z" fill="#3E3935"/><path d="M72.851 20.638l-1.43-.002v-.35l1.43.003zm.181-1.084v-.236l1.132-1.37h.239l-1.149 1.39h.495c.277 0 .465.041.559.123.106.091.159.274.159.546v.629h-1.616v-.346h1.328v-.295c0-.149-.034-.255-.102-.318-.091-.082-.259-.123-.506-.123zm2.72 1.082a1.37 1.37 0 0 1-.289.75 1.535 1.535 0 0 1-.602.457v-.035a1.784 1.784 0 0 0 .491-.692c.079-.197.119-.393.119-.591v-.791c0-.063-.016-.105-.045-.136-.03-.029-.076-.044-.134-.044h-.071v-.102l.535-.114v.952h.269v.346zm1.704.002l-1.431-.002v-.35l1.431.003zm1.792-.002h-1.792v-.346h1.326v-.736h-.251a.39.39 0 0 0-.322.152.5.5 0 0 0-.107.317v.137h-.287v-.174c0-.189.058-.343.169-.46.124-.125.293-.188.506-.188h.579v.952a.24.24 0 0 0 .058.159c.039.05.079.076.121.076zm-35.273 5.438c.048 0 .089.02.121.062a.217.217 0 0 1 .049.146.218.218 0 0 1-.049.143.15.15 0 0 1-.121.061.155.155 0 0 1-.12-.06.219.219 0 0 1-.053-.144c0-.059.019-.107.053-.146a.144.144 0 0 1 .12-.062m.791-.78v-.556a.193.193 0 0 0-.014-.077c-.02-.067-.078-.104-.167-.104h-.071v-.098l.536-.117v.952h.269v.348h-2.061c-.241 0-.43-.062-.558-.18a.44.44 0 0 1-.159-.337c0-.07.087-.201.26-.397.182-.205.331-.332.457-.386v.054a1.634 1.634 0 0 0-.264.322.556.556 0 0 0-.094.273c0 .064.045.129.135.192a.698.698 0 0 0 .403.111zm1.985.349l-1.432-.001v-.349l1.432.001z" fill="#3E3935"/><path d="M48.18 25.643l-1.43-.001v-.349l1.43.001zm1.432 0l-1.432-.001v-.349l1.432.001zm.783.431c.049 0 .088.02.122.059.032.04.049.088.049.147a.22.22 0 0 1-.051.143.152.152 0 0 1-.12.06.155.155 0 0 1-.119-.058.238.238 0 0 1-.003-.292.155.155 0 0 1 .122-.059m-.417.083c.047 0 .086.019.12.061.034.039.05.088.05.143a.218.218 0 0 1-.05.146.155.155 0 0 1-.12.06.149.149 0 0 1-.119-.06.218.218 0 0 1-.05-.146c0-.057.016-.104.048-.147a.155.155 0 0 1 .121-.057m.241-.863v-.556a.216.216 0 0 0-.011-.077c-.021-.067-.079-.104-.167-.104h-.072v-.098l.536-.117v.952a.29.29 0 0 0 .09.213c.02.019.051.039.091.063v.072h-1.074v-.348zm1.758.202c0 .322-.086.604-.259.845a1.508 1.508 0 0 1-.636.505v-.035a1.43 1.43 0 0 0 .238-.253c.104-.136.189-.284.252-.437.079-.196.119-.392.119-.59v-.793c0-.061-.015-.108-.046-.134a.183.183 0 0 0-.131-.046h-.072v-.099l.535-.117zm2.456.146h-2.062v-.348h1.507v-.316a.39.39 0 0 0-.147-.307.43.43 0 0 0-.284-.113h-.896v-.216h.896c.264 0 .45.053.56.159.106.099.157.265.157.49v.303h.269zm1.431.001l-1.431-.001v-.349l1.431.001zm1.43 0l-1.43-.001v-.349l1.43.001z" fill="#3E3935"/><path d="M58.011 23.716c.047 0 .088.019.12.06.032.04.05.086.05.147a.216.216 0 0 1-.05.14.146.146 0 0 1-.12.06.151.151 0 0 1-.12-.055.218.218 0 0 1-.051-.145c0-.061.017-.107.05-.147a.144.144 0 0 1 .121-.06m-.418.082c.047 0 .086.021.12.061.032.041.05.088.05.146a.234.234 0 0 1-.05.145.155.155 0 0 1-.12.06.153.153 0 0 1-.12-.06.228.228 0 0 1-.05-.145.22.22 0 0 1 .049-.146.152.152 0 0 1 .121-.061m.311 1.496v-.557a.2.2 0 0 0-.013-.077c-.022-.067-.077-.103-.167-.103h-.072v-.099l.537-.117v.953h.269v.347h-1.165v-.347z" fill="#3E3935"/><path d="M58.889 25.294v-1.945a.285.285 0 0 0-.01-.078c-.023-.068-.079-.102-.17-.102h-.072v-.101l.538-.116v2.342c0 .083.03.155.091.213a.498.498 0 0 0 .089.063v.072h-.897v-.348zm1.577.348h-.646v-.072a.291.291 0 0 0 .181-.276V23.35a.189.189 0 0 0-.046-.136c-.031-.031-.075-.045-.134-.045h-.07v-.101l.537-.116v2.342c0 .083.029.155.089.213a.452.452 0 0 0 .089.063zm1.465-.496a.676.676 0 0 0-.127-.417c-.083-.112-.185-.171-.302-.171a.334.334 0 0 0-.264.112.358.358 0 0 0-.094.257c0 .1.033.186.098.259a.302.302 0 0 0 .24.108h.308v.037c0 .06-.01.131-.032.209-.007.026-.018.06-.033.102h-.223a.677.677 0 0 1-.398-.126.581.581 0 0 1-.244-.504c0-.202.068-.367.204-.496a.589.589 0 0 1 .413-.174c.226 0 .406.068.535.199.138.141.207.34.207.603v.15c0 .129-.04.289-.116.482a2.418 2.418 0 0 1-.346.592 1.75 1.75 0 0 1-.567.478v-.035c.171-.166.332-.395.487-.69.17-.322.254-.585.254-.79zm3.101.496c0 .164-.069.323-.21.484a1.279 1.279 0 0 1-.614.381c.216-.207.361-.381.436-.524a.819.819 0 0 0 .102-.413v-.579c0-.191.057-.343.174-.462.12-.124.289-.187.503-.187h.579v.952h.266v.348h-1.075v-.348h.522v-.736h-.252a.395.395 0 0 0-.324.151.505.505 0 0 0-.107.319z" fill="#3E3935"/><path d="M67.698 25.643l-1.43-.001v-.349l1.43.001zm1.432 0l-1.432-.001v-.349l1.432.001zm.789.431c.047 0 .088.02.12.059.035.04.052.088.052.147a.216.216 0 0 1-.052.143.156.156 0 0 1-.12.06.156.156 0 0 1-.121-.058.22.22 0 0 1-.05-.145c0-.059.017-.107.05-.147a.149.149 0 0 1 .121-.059m-.419.083c.047 0 .087.019.12.061a.208.208 0 0 1 .051.143.213.213 0 0 1-.051.146.153.153 0 0 1-.12.06.153.153 0 0 1-.119-.06.218.218 0 0 1-.051-.146c0-.057.017-.104.051-.147a.15.15 0 0 1 .119-.057m.239-.863v-.556c0-.031-.006-.056-.01-.077-.023-.067-.079-.104-.169-.104h-.073v-.098l.538-.117v.952h.271v.348H69.13v-.348z" fill="#3E3935"/><path d="M70.724 25.294v-1.945a.222.222 0 0 0-.011-.078c-.022-.068-.079-.102-.168-.102h-.071v-.101l.537-.116v2.342h.269v.348h-.985v-.348z" fill="#3E3935"/><path d="M72.71 25.643l-1.43-.001v-.349l1.43.001z" fill="#3E3935"/><path d="M74.14 25.643l-1.431-.001v-.349l1.431.001zm1.504-.827c0-.09-.033-.155-.102-.196a.56.56 0 0 0-.289-.063h-.037a.974.974 0 0 0-.274.024c-.074.025-.111.084-.111.178 0 .088.069.198.206.333.137.134.255.202.358.202a.793.793 0 0 0 .125-.111c.083-.091.124-.179.124-.265zm.558.826H74.14v-.348h.68c-.039-.034-.112-.141-.216-.325-.074-.13-.168-.195-.285-.195a.497.497 0 0 1 .2-.303.767.767 0 0 1 .327-.113c.088-.01.21-.017.37-.017h.152c.175 0 .311.041.409.127.103.089.156.22.156.397 0 .095-.013.18-.035.25a.58.58 0 0 1-.094.179h.398z" fill="#3E3935"/><path d="M76.92 23.716c.047 0 .088.019.119.06.033.04.05.086.05.147a.206.206 0 0 1-.051.14.143.143 0 0 1-.118.06.155.155 0 0 1-.121-.055.222.222 0 0 1-.05-.145c0-.061.017-.107.05-.147a.144.144 0 0 1 .121-.06m-.419.082c.047 0 .087.021.12.061.033.041.05.088.05.146a.228.228 0 0 1-.05.145.153.153 0 0 1-.12.06.156.156 0 0 1-.12-.06.234.234 0 0 1-.05-.145c0-.059.018-.108.049-.146a.152.152 0 0 1 .121-.061m.311 1.496v-.557a.252.252 0 0 0-.01-.077c-.025-.067-.08-.103-.17-.103h-.071v-.099l.536-.117v.953h.27v.347h-1.165v-.347zm.986 0v-1.945a.246.246 0 0 0-.012-.078c-.022-.068-.079-.102-.169-.102h-.071v-.101l.538-.116v2.342h.268v.348h-.985v-.348z" fill="#3E3935"/><path d="M78.782 25.294v-1.945a.248.248 0 0 0-.011-.078c-.022-.068-.079-.102-.167-.102h-.073v-.101l.539-.116v2.342c0 .083.03.155.09.213a.45.45 0 0 0 .088.063v.072h-.897v-.348zm-35.391 6.57a.15.15 0 0 1 .121.06.214.214 0 0 1 .049.145.215.215 0 0 1-.049.142.146.146 0 0 1-.121.061.147.147 0 0 1-.12-.059.215.215 0 0 1-.05-.144c0-.058.017-.107.05-.145a.148.148 0 0 1 .12-.06m-.417.083c.047 0 .087.018.12.059a.21.21 0 0 1 .051.145.222.222 0 0 1-.05.147.162.162 0 0 1-.121.06c-.048 0-.087-.023-.122-.06a.238.238 0 0 1-.048-.147.23.23 0 0 1 .048-.145.152.152 0 0 1 .122-.059m.828-.869c0-.039-.045-.083-.135-.133-.29-.155-.435-.235-.439-.24a1.004 1.004 0 0 1-.234-.278.734.734 0 0 1-.094-.358c0-.254.08-.464.238-.626a.726.726 0 0 1 .538-.225c.181 0 .348.073.5.224a.693.693 0 0 1 .231.503v.353h.149v.346h-.2c-.057 0-.11-.03-.159-.086a.273.273 0 0 1-.077-.191v-.409a.567.567 0 0 0-.128-.348c-.091-.119-.195-.179-.31-.179a.438.438 0 0 0-.34.174.677.677 0 0 0-.155.447c0 .108.025.204.074.292a.85.85 0 0 0 .271.279c.084.057.227.129.432.213.133.053.198.109.198.167 0 .085-.051.177-.153.271a1.21 1.21 0 0 1-.423.248 1.903 1.903 0 0 1-.643.107 1.23 1.23 0 0 1-.644-.201c-.226-.138-.34-.277-.34-.416 0-.053.088-.154.264-.298.164-.134.314-.237.451-.31v.055a2.752 2.752 0 0 0-.165.18c-.109.133-.165.231-.165.293 0 .089.074.196.221.319.148.122.281.184.4.184.18 0 .364-.043.554-.133.19-.088.283-.162.283-.224m2.184-.431l-1.43-.002v-.348l1.43.001zm1.431 0l-1.431-.002v-.348l1.431.001z" fill="#3E3935"/><path d="M48.849 30.647l-1.433-.002v-.348l1.433.001zm1.428 0l-1.428-.002v-.348l1.428.001zm.538-2.146a.15.15 0 0 1 .12.061c.034.041.05.091.05.147a.212.212 0 0 1-.05.143.147.147 0 0 1-.12.061.152.152 0 0 1-.12-.059.212.212 0 0 1-.052-.145c0-.056.017-.106.051-.147a.153.153 0 0 1 .121-.061m.071 1.797v-.554a.242.242 0 0 0-.01-.078c-.022-.07-.078-.102-.168-.102h-.072v-.104l.536-.113v.951h.27v.346h-1.165v-.346zm1.987.349l-1.431-.002v-.348l1.431.001z" fill="#3E3935"/><path d="M54.303 30.647l-1.431-.002v-.348l1.431.001zm1.488-.349h.559v-.379a.314.314 0 0 0-.148-.275.453.453 0 0 0-.254-.08h-.157zm-.287-.734h-.191a.364.364 0 0 0-.236.086.34.34 0 0 0-.139.282v.237h-.277v-.174c0-.214.054-.375.161-.488.1-.107.236-.16.408-.16h.274v-.037a.192.192 0 0 0-.045-.136c-.031-.03-.075-.043-.132-.043h-.072v-.103l.536-.115v.434h.221c.206 0 .361.053.466.16.104.107.156.27.156.488v.303h.267v.346h-2.597v-.346h1.2zm3.279 1.08h-1.882v-.346h1.328v-.734h-.251a.393.393 0 0 0-.323.149.492.492 0 0 0-.108.318v.138h-.286v-.174c0-.189.056-.344.17-.461.123-.126.291-.187.504-.187h.578v.951h.27z" fill="#3E3935"/><path d="M59.214 30.298v-1.945a.224.224 0 0 0-.012-.078c-.021-.069-.078-.102-.167-.102h-.071v-.102l.537-.114v2.341c0 .085.03.155.089.213.02.017.05.04.091.062v.071h-.898v-.346zm1.577.346h-.646v-.071a.406.406 0 0 0 .09-.06.285.285 0 0 0 .089-.215v-1.946c0-.059-.015-.106-.047-.134-.029-.032-.072-.045-.131-.045h-.072v-.102l.537-.115v2.342a.29.29 0 0 0 .089.213c.02.017.05.04.091.062zm1.467-.494a.688.688 0 0 0-.127-.416c-.085-.114-.185-.17-.303-.17-.109 0-.2.034-.265.109a.379.379 0 0 0-.093.258c0 .1.031.185.097.258a.31.31 0 0 0 .241.109h.307v.035a.775.775 0 0 1-.031.211c-.009.025-.018.059-.034.1h-.222a.692.692 0 0 1-.399-.123.58.58 0 0 1-.243-.503c0-.202.068-.368.205-.497a.574.574 0 0 1 .411-.174c.226 0 .407.066.536.198.139.14.206.34.206.603v.15c0 .129-.039.29-.115.482a2.424 2.424 0 0 1-.348.594 1.712 1.712 0 0 1-.565.477v-.034c.17-.166.332-.396.487-.69.17-.323.255-.588.255-.794zm3.705 1.714c.051 0 .09.02.123.06.033.038.05.087.05.145a.217.217 0 0 1-.051.142.147.147 0 0 1-.122.061.145.145 0 0 1-.117-.059.206.206 0 0 1-.051-.144c0-.058.016-.107.051-.145a.144.144 0 0 1 .117-.06m-.416.083a.15.15 0 0 1 .121.059c.034.04.052.088.052.145a.228.228 0 0 1-.051.147.16.16 0 0 1-.122.06.156.156 0 0 1-.118-.06.219.219 0 0 1-.052-.147c0-.057.017-.105.052-.145a.143.143 0 0 1 .118-.059m.831-.869c0-.039-.047-.083-.138-.133a15.52 15.52 0 0 1-.439-.24 1.053 1.053 0 0 1-.233-.278.72.72 0 0 1-.092-.358.86.86 0 0 1 .236-.626.722.722 0 0 1 .536-.225c.183 0 .35.073.504.224a.69.69 0 0 1 .229.503v.353h.148v.346h-.2c-.054 0-.109-.03-.158-.086a.275.275 0 0 1-.079-.191v-.409a.57.57 0 0 0-.125-.348c-.091-.119-.194-.179-.312-.179-.129 0-.24.059-.338.174a.672.672 0 0 0-.156.447c0 .108.022.204.073.292a.87.87 0 0 0 .271.279c.084.057.229.129.433.213.131.053.197.109.197.167 0 .085-.05.177-.153.271a1.179 1.179 0 0 1-.422.248 1.893 1.893 0 0 1-.642.107c-.21 0-.423-.066-.645-.201-.226-.138-.341-.277-.341-.416 0-.053.088-.154.265-.298a2.8 2.8 0 0 1 .451-.31v.055c-.073.076-.13.135-.164.18-.11.133-.164.231-.164.293 0 .089.072.196.22.319.148.122.28.184.398.184.182 0 .365-.043.555-.133.191-.088.285-.162.285-.224" fill="#3E3935"/><path d="M68.56 30.647l-1.432-.002v-.348l1.432.001z" fill="#3E3935"/><path d="M69.99 30.647l-1.43-.002v-.348l1.43.001zm.537-2.146c.046 0 .088.021.12.061a.225.225 0 0 1 .051.147.212.212 0 0 1-.051.143.149.149 0 0 1-.12.061.154.154 0 0 1-.121-.059.232.232 0 0 1-.051-.145c0-.056.017-.106.051-.147a.15.15 0 0 1 .121-.061m.072 1.797v-.554a.274.274 0 0 0-.01-.078c-.022-.07-.079-.102-.167-.102h-.073v-.104l.536-.113v.951h.269v.346H69.99v-.346z" fill="#3E3935"/><path d="M72.585 30.647l-1.431-.002v-.348l1.431.001z" fill="#3E3935"/><path d="M74.015 30.647l-1.431-.002v-.348l1.431.001zm.862-2.444c.048 0 .086.02.121.06.03.038.048.089.048.146a.22.22 0 0 1-.05.142.151.151 0 0 1-.119.061.156.156 0 0 1-.123-.06.222.222 0 0 1-.05-.143.23.23 0 0 1 .05-.146.153.153 0 0 1 .123-.06m-.417.082c.045 0 .085.021.118.062.035.041.05.09.05.146a.204.204 0 0 1-.05.142.145.145 0 0 1-.118.061.147.147 0 0 1-.122-.061.214.214 0 0 1-.05-.142c0-.06.017-.109.05-.147a.151.151 0 0 1 .122-.061m1.618 2.359h-2.062v-.346h1.505v-.319a.685.685 0 0 0-.153-.442c-.103-.127-.22-.19-.348-.19a.36.36 0 0 0-.247.083.315.315 0 0 0-.113.255c0 .084.033.169.099.254.083.104.2.176.348.208h-.52a.308.308 0 0 1-.143-.135.512.512 0 0 1-.069-.268c0-.183.062-.33.187-.444a.642.642 0 0 1 .458-.169c.226 0 .416.081.563.245.15.165.227.371.227.619v.303h.268zm.715-1.925c.048 0 .088.022.122.061.032.04.049.088.049.146a.225.225 0 0 1-.049.143c-.035.039-.074.062-.122.062-.045 0-.085-.023-.119-.06a.216.216 0 0 1-.05-.145c0-.058.017-.106.047-.146a.161.161 0 0 1 .122-.061m-.417.083c.046 0 .088.02.119.062.034.04.052.088.052.145a.216.216 0 0 1-.052.144.144.144 0 0 1-.119.062.144.144 0 0 1-.119-.062.221.221 0 0 1-.052-.144c0-.059.018-.108.051-.146a.146.146 0 0 1 .12-.061m.311 1.496v-.555a.21.21 0 0 0-.012-.077c-.023-.071-.079-.102-.169-.102h-.071v-.104l.539-.113v.951h.269v.346h-1.165v-.346z" fill="#3E3935"/><path d="M77.673 30.298v-1.945a.25.25 0 0 0-.012-.078c-.023-.069-.078-.102-.168-.102h-.074v-.102l.539-.114v2.341c0 .085.03.155.09.213.02.017.05.04.091.062v.071h-.896v-.346zm1.575.346h-.645v-.071a.395.395 0 0 0 .089-.06.286.286 0 0 0 .09-.215v-1.946c0-.059-.015-.106-.045-.134-.032-.032-.074-.045-.131-.045h-.073v-.102l.537-.115v2.342a.29.29 0 0 0 .089.213c.02.017.048.04.089.062z" fill="#3E3935"/><path d="M40.467 18.238V32.32" stroke="#7C98AB" stroke-width=".421" fill="none"/><path d="M2.814 19.166c0-.433-.121-.576-.561-.576h-.265c-.441 0-.561.143-.561.576v.602h1.387v-.602zm.103 2.087h-.04c-.037 0-.063-.036-.063-.073v-1.249H1.427v1.249c0 .037-.026.073-.065.073h-.037c-.037 0-.064-.036-.064-.073v-2.014c0-.498.163-.733.727-.733h.265c.564 0 .727.235.727.733v2.014c0 .037-.026.073-.063.073zm2.157-1.15c0-.501-.159-.758-.576-.758a3.32 3.32 0 0 0-.527.047v1.686c.137.021.345.048.527.048.425 0 .576-.283.576-.773v-.25zm-.576 1.173c-.215 0-.47-.039-.636-.073-.046-.01-.058-.027-.058-.072v-2.626c0-.037.027-.072.066-.072h.037c.038 0 .064.035.064.072v.748a2.74 2.74 0 0 1 .527-.057c.493 0 .743.308.743.907v.25c0 .546-.22.923-.743.923zm2.212 0h-.074c-.256 0-.684-.137-.684-.765v-1.223c0-.039.027-.074.064-.074h.038c.038 0 .065.035.065.074v1.223c0 .486.261.608.517.608h.074c.256 0 .518-.122.518-.608v-1.223c0-.039.027-.074.065-.074h.038c.037 0 .064.035.064.074v1.223c0 .628-.429.765-.685.765zm4.41-1.666c0-.809-.409-1.048-.939-1.048-.22 0-.351.012-.52.023v2.526c.169.012.3.016.52.016.53 0 .939-.246.939-1.047v-.47zm-.939 1.666c-.303 0-.511-.012-.622-.032-.034-.007-.065-.037-.065-.072v-2.655c0-.035.031-.065.065-.073.111-.019.319-.03.622-.03.644 0 1.105.309 1.105 1.196v.47c0 .873-.461 1.196-1.105 1.196zm3.192 0h-.039c-.037 0-.061-.036-.061-.073v-1.278c0-.373-.155-.58-.56-.58a2.02 2.02 0 0 0-.511.068v1.79c0 .037-.026.073-.064.073H12.1c-.039 0-.064-.036-.064-.073v-2.698c0-.037.025-.072.064-.072h.038c.038 0 .064.035.064.072v.759c.148-.037.344-.068.511-.068.527 0 .723.304.723.729v1.278c0 .037-.023.073-.063.073zm1.983-1.094h-.293c-.572 0-.765.11-.765.433v.049c0 .308.103.462.595.462.19 0 .386-.03.463-.044v-.9zm.109 1.013a2.25 2.25 0 0 1-.572.081c-.575 0-.765-.198-.765-.612v-.049c0-.399.247-.586.935-.586h.293v-.135c0-.394-.109-.549-.479-.549-.25 0-.36.014-.537.031-.046.005-.087-.01-.087-.054v-.023c0-.042.03-.063.087-.068.16-.018.287-.035.537-.035.514 0 .646.289.646.698v1.222c0 .046-.013.067-.058.079zm2.113-1.092c0-.501-.159-.758-.576-.758a3.33 3.33 0 0 0-.527.047v1.686c.138.021.345.048.527.048.424 0 .576-.283.576-.773v-.25zm-.576 1.173c-.216 0-.469-.039-.636-.073-.045-.01-.058-.027-.058-.072v-2.626c0-.037.028-.072.065-.072h.037c.039 0 .065.035.065.072v.748c.153-.035.38-.057.527-.057.491 0 .743.308.743.907v.25c0 .546-.221.923-.743.923zm1.605 0h-.022a.075.075 0 0 1-.072-.073v-1.915c0-.039.033-.074.072-.074h.022c.039 0 .071.035.071.074v1.915c0 .037-.032.073-.071.073zm0-2.438h-.022a.07.07 0 0 1-.072-.072v-.279c0-.038.033-.073.072-.073h.022c.039 0 .071.035.071.073v.279a.07.07 0 0 1-.071.072zm3.738 2.398c-.1.012-.307.039-.655.039-.474 0-.928-.275-.928-1.182v-.498c0-.909.454-1.182.928-1.182.348 0 .555.027.655.038.034.004.072.028.072.065v.045c0 .039-.018.047-.051.047h-.021a6.684 6.684 0 0 0-.655-.035c-.425 0-.763.274-.763 1.022v.498c0 .749.338 1.022.763 1.022.235 0 .518-.02.655-.034h.021c.033 0 .051.007.051.045v.046c0 .038-.038.06-.072.064zm2.04-1.138c0-.478-.158-.754-.587-.754-.421 0-.6.308-.6.758v.02h1.187v-.024zm.095.174h-1.282v.08c0 .639.309.774.687.774.167 0 .375-.028.561-.065.007 0 .015-.003.024-.003.029 0 .056.016.056.053v.027c0 .042-.016.061-.073.072a3.009 3.009 0 0 1-.568.065c-.47 0-.852-.206-.852-.923v-.25c0-.523.265-.906.765-.906.524 0 .754.364.754.902v.103a.071.071 0 0 1-.072.071zm2.161 1.004h-.038c-.039 0-.066-.036-.066-.073v-1.308c0-.477-.218-.54-.472-.54h-.162c-.254 0-.475.063-.475.54v1.308c0 .037-.026.073-.063.073h-.038c-.039 0-.066-.036-.066-.073v-1.308c0-.638.38-.699.642-.699h.162c.262 0 .64.061.64.699v1.308c0 .037-.026.073-.064.073zm1.639-.013a2.768 2.768 0 0 1-.287.012c-.335 0-.52-.112-.52-.487V18.79c0-.039.031-.074.071-.074h.032c.038 0 .067.035.067.074v.424h.637c.041 0 .071.021.071.061v.036c0 .037-.03.059-.071.059h-.637v1.418c0 .293.095.338.35.338h.287c.057 0 .08.015.08.049v.027c0 .03-.012.053-.08.061zm1.409-1.919h-.119c-.193 0-.295.021-.412.09v1.768c0 .037-.028.073-.066.073h-.037c-.038 0-.06-.036-.06-.073v-1.797a.07.07 0 0 1 .033-.061.968.968 0 0 1 .547-.148c.17 0 .192.018.192.067v.019c0 .046-.026.062-.078.062zm1.916.754c0-.478-.159-.754-.588-.754-.421 0-.598.308-.598.758v.02h1.186v-.024zm.095.174h-1.281v.08c0 .639.306.774.685.774.167 0 .375-.028.561-.065.007 0 .013-.003.022-.003.03 0 .057.016.057.053v.027c0 .042-.015.061-.072.072a2.99 2.99 0 0 1-.568.065c-.469 0-.853-.206-.853-.923v-.25c0-.523.265-.906.766-.906.525 0 .753.364.753.902v.103a.07.07 0 0 1-.07.071zm2.902-1.711h-.288c-.255 0-.353.047-.353.34v.313h.641c.041 0 .072.021.072.061v.036c0 .037-.031.06-.072.06h-.641v1.831c0 .037-.03.073-.067.073h-.027a.074.074 0 0 1-.072-.073v-2.301c0-.377.186-.487.519-.487.114 0 .239.002.288.011.067.008.079.031.079.061v.028c0 .032-.022.047-.079.047zm1.859 1.542c0-.467-.17-.758-.613-.758-.443 0-.613.291-.613.758v.264c0 .467.17.759.613.759.443 0 .613-.292.613-.759v-.264zm-.613 1.173c-.52 0-.782-.335-.782-.909v-.264c0-.572.262-.907.782-.907.518 0 .78.335.78.907v.264c0 .574-.262.909-.78.909zm2.202-1.932h-.117c-.193 0-.294.021-.413.09v1.768c0 .037-.027.073-.063.073h-.038c-.04 0-.06-.036-.06-.073v-1.797c0-.031.018-.054.033-.061a.965.965 0 0 1 .546-.148c.171 0 .192.018.192.067v.019c0 .046-.026.062-.08.062zm-34.937 4.31h-.81v2.591c0 .038-.026.073-.065.073h-.037c-.038 0-.065-.035-.065-.073v-2.591h-.811c-.043 0-.073-.018-.073-.057v-.034c0-.038.03-.065.073-.065h1.788c.04 0 .071.027.071.065v.034c0 .039-.031.057-.071.057zm1.35 1.509c0-.477-.158-.755-.586-.755-.419 0-.597.309-.597.759v.02h1.183v-.024zm.095.176H3.28v.078c0 .639.306.775.685.775.166 0 .373-.026.56-.065.006 0 .014-.004.021-.004.03 0 .058.015.058.055v.024c0 .043-.016.062-.073.073a2.98 2.98 0 0 1-.566.065c-.47 0-.851-.205-.851-.923v-.25c0-.523.266-.907.763-.907.523 0 .752.363.752.903v.103a.072.072 0 0 1-.071.073zm1.642.967a4.325 4.325 0 0 1-.457.034c-.54 0-.749-.422-.749-.919v-.254c0-.504.209-.907.749-.907.121 0 .298.016.457.035.057.008.071.027.071.067v.027c0 .039-.026.054-.064.054h-.015a3.554 3.554 0 0 0-.449-.035c-.432 0-.582.301-.582.759v.254c0 .461.15.771.582.771.125 0 .272-.012.449-.034h.015c.038 0 .064.013.064.053v.026c0 .042-.014.062-.071.069zm1.786.034h-.039c-.037 0-.059-.034-.059-.074v-1.277c0-.37-.156-.581-.56-.581-.162 0-.365.027-.509.07v1.788c0 .04-.028.074-.065.074h-.038c-.038 0-.065-.034-.065-.074v-2.695c0-.039.027-.073.065-.073h.038c.037 0 .065.034.065.073v.757a2.36 2.36 0 0 1 .509-.068c.527 0 .72.303.72.729v1.277c0 .04-.021.074-.062.074zm1.88 0H9.83c-.038 0-.066-.034-.066-.074v-1.307c0-.478-.219-.538-.472-.538h-.163c-.252 0-.472.06-.472.538v1.307c0 .04-.026.074-.063.074h-.038c-.039 0-.064-.034-.064-.074v-1.307c0-.637.377-.699.637-.699h.163c.261 0 .638.062.638.699v1.307c0 .04-.026.074-.064.074zm.657 0H10.5a.076.076 0 0 1-.073-.074v-1.914c0-.038.035-.07.073-.07h.023c.036 0 .072.032.072.07v1.914c0 .04-.036.074-.072.074zm0-2.437H10.5a.071.071 0 0 1-.073-.071v-.28c0-.038.035-.074.073-.074h.023c.036 0 .072.036.072.074v.28a.071.071 0 0 1-.072.071zm1.737 2.403a4.308 4.308 0 0 1-.456.034c-.542 0-.749-.422-.749-.919v-.254c0-.504.207-.907.749-.907.121 0 .297.016.456.035.059.008.072.027.072.067v.027c0 .039-.026.054-.063.054h-.017a3.527 3.527 0 0 0-.448-.035c-.432 0-.584.301-.584.759v.254c0 .461.152.771.584.771.125 0 .272-.012.448-.034h.017c.037 0 .063.013.063.053v.026c0 .042-.013.062-.072.069zm1.602-1.058h-.291c-.571 0-.765.11-.765.432v.048c0 .309.103.464.594.464.189 0 .387-.031.462-.046v-.898zm.109 1.011a2.117 2.117 0 0 1-.571.081c-.574 0-.765-.197-.765-.612v-.048c0-.397.248-.584.936-.584h.291v-.138c0-.395-.11-.55-.478-.55-.248 0-.358.017-.536.035-.044.004-.087-.012-.087-.056v-.025c0-.04.031-.059.087-.067.16-.019.288-.035.536-.035.511 0 .643.289.643.698v1.222c0 .045-.012.068-.056.079zm.675.081h-.039c-.037 0-.064-.034-.064-.074v-2.695c0-.039.027-.073.064-.073h.039c.037 0 .064.034.064.073v2.695c0 .04-.027.074-.064.074zm2.715-1.092h-.29c-.571 0-.764.11-.764.432v.048c0 .309.101.464.593.464.19 0 .385-.031.461-.046v-.898zm.11 1.011a2.112 2.112 0 0 1-.571.081c-.574 0-.763-.197-.763-.612v-.048c0-.397.245-.584.934-.584h.29v-.138c0-.395-.108-.55-.476-.55-.25 0-.358.017-.538.035-.044.004-.087-.012-.087-.056v-.025c0-.04.032-.059.087-.067.16-.019.288-.035.538-.035.51 0 .642.289.642.698v1.222c0 .045-.01.068-.056.079zm1.891.081h-.038c-.036 0-.063-.034-.063-.074v-1.307c0-.478-.22-.538-.472-.538h-.162c-.254 0-.474.06-.474.538v1.307c0 .04-.025.074-.063.074h-.038c-.037 0-.065-.034-.065-.074v-1.307c0-.637.379-.699.64-.699h.162c.261 0 .638.062.638.699v1.307c0 .04-.026.074-.065.074zm1.732-1.882a3.051 3.051 0 0 0-.525-.049c-.414 0-.574.26-.574.759v.25c0 .49.153.774.574.774.182 0 .39-.026.525-.048v-1.686zm.111 1.809a3.363 3.363 0 0 1-.636.073c-.52 0-.739-.374-.739-.922v-.25c0-.599.249-.907.739-.907.148 0 .376.023.525.057v-.746c0-.039.027-.074.065-.074h.039c.037 0 .064.035.064.074v2.624c0 .047-.012.06-.057.071zm3.468-2.674l-.775 2.561c-.037.129-.125.186-.246.186s-.207-.057-.245-.186l-.775-2.561c-.004-.007-.004-.019-.004-.025 0-.039.023-.07.066-.07h.04c.026 0 .053.023.061.054l.771 2.552c.018.062.045.076.086.076.042 0 .068-.014.087-.076l.771-2.552c.008-.031.034-.054.06-.054h.042c.042 0 .064.031.064.07 0 .006 0 .018-.003.025zm1.528 1.575c0-.467-.17-.759-.614-.759-.44 0-.611.292-.611.759v.266c0 .466.171.758.611.758.444 0 .614-.292.614-.758v-.266zm-.614 1.172c-.515 0-.777-.333-.777-.906v-.266c0-.575.262-.907.777-.907.519 0 .781.332.781.907v.266c0 .573-.262.906-.781.906zm2.351-.034c-.16.019-.336.034-.458.034-.54 0-.748-.422-.748-.919v-.254c0-.504.208-.907.748-.907.122 0 .298.016.458.035.056.008.071.027.071.067v.027c0 .039-.026.054-.065.054h-.015a3.554 3.554 0 0 0-.449-.035c-.43 0-.583.301-.583.759v.254c0 .461.153.771.583.771.126 0 .271-.012.449-.034h.015c.039 0 .065.013.065.053v.026c0 .042-.015.062-.071.069zm1.601-1.058h-.292c-.569 0-.763.11-.763.432v.048c0 .309.102.464.594.464.189 0 .385-.031.461-.046v-.898zm.11 1.011a2.129 2.129 0 0 1-.571.081c-.575 0-.764-.197-.764-.612v-.048c0-.397.246-.584.933-.584h.292v-.138c0-.395-.11-.55-.478-.55-.249 0-.357.017-.535.035-.045.004-.087-.012-.087-.056v-.025c0-.04.032-.059.087-.067.159-.019.286-.035.535-.035.511 0 .644.289.644.698v1.222c0 .045-.011.068-.056.079zm1.339.07a2.804 2.804 0 0 1-.287.011c-.332 0-.518-.111-.518-.486v-1.999c0-.037.032-.073.074-.073h.029c.038 0 .067.036.067.073v.427h.635c.041 0 .072.021.072.06v.032c0 .039-.031.06-.072.06h-.635v1.42c0 .292.094.338.348.338h.287c.059 0 .08.016.08.05v.024c0 .033-.011.055-.08.063zm.539.011h-.022a.075.075 0 0 1-.072-.074v-1.914c0-.038.034-.07.072-.07h.022c.039 0 .072.032.072.07v1.914c0 .04-.033.074-.072.074zm0-2.437h-.022a.07.07 0 0 1-.072-.071v-.28c0-.038.034-.074.072-.074h.022c.039 0 .072.036.072.074v.28a.07.07 0 0 1-.072.071zm1.923 1.265c0-.467-.169-.759-.61-.759-.444 0-.614.292-.614.759v.266c0 .466.17.758.614.758.441 0 .61-.292.61-.758v-.266zm-.61 1.172c-.519 0-.78-.333-.78-.906v-.266c0-.575.261-.907.78-.907.516 0 .777.332.777.907v.266c0 .573-.261.906-.777.906zm2.555 0h-.038c-.037 0-.066-.034-.066-.074v-1.307c0-.478-.216-.538-.469-.538h-.164c-.253 0-.472.06-.472.538v1.307c0 .04-.027.074-.065.074h-.038c-.037 0-.062-.034-.062-.074v-1.307c0-.637.377-.699.637-.699h.164c.26 0 .636.062.636.699v1.307c0 .04-.025.074-.063.074zm1.673-1.092h-.29c-.571 0-.764.11-.764.432v.048c0 .309.102.464.593.464.189 0 .385-.031.461-.046v-.898zm.11 1.011a2.123 2.123 0 0 1-.571.081c-.574 0-.764-.197-.764-.612v-.048c0-.397.246-.584.935-.584h.29v-.138c0-.395-.11-.55-.478-.55-.248 0-.356.017-.534.035-.047.004-.088-.012-.088-.056v-.025c0-.04.03-.059.088-.067.158-.019.286-.035.534-.035.512 0 .644.289.644.698v1.222c0 .045-.011.068-.056.079zm.675.081h-.039c-.037 0-.064-.034-.064-.074v-2.695c0-.039.027-.073.064-.073h.039c.037 0 .063.034.063.073v2.695c0 .04-.026.074-.063.074zM2.697 31.382h-.979c-.288 0-.457-.106-.457-.425v-1.97c0-.316.169-.423.457-.423h.979c.041 0 .071.027.071.063v.031c0 .037-.03.061-.071.061h-.979c-.181 0-.291.035-.291.268v.836h1.27c.041 0 .071.024.071.062v.037c0 .038-.03.063-.071.063h-1.27v.972c0 .235.11.271.291.271h.979c.041 0 .071.023.071.058v.032c0 .037-.03.064-.071.064zm1.851-1.86a3.194 3.194 0 0 0-.526-.047c-.418 0-.577.256-.577.757v.253c0 .489.153.771.577.771.181 0 .39-.024.526-.048v-1.686zm.11 1.81a3.398 3.398 0 0 1-.636.072c-.524 0-.744-.373-.744-.919v-.253c0-.599.251-.905.744-.905.148 0 .375.022.526.055v-.747c0-.036.026-.071.064-.071h.039c.037 0 .063.035.063.071v2.627c0 .044-.012.06-.056.07zm1.418.072h-.07c-.259 0-.687-.137-.687-.76v-1.226c0-.039.027-.074.065-.074h.038c.037 0 .063.035.063.074v1.226c0 .484.262.607.521.607h.07c.26 0 .519-.123.519-.607v-1.226c0-.039.028-.074.065-.074h.038c.038 0 .065.035.065.074v1.226c0 .623-.427.76-.687.76zm2.441-.032a4.26 4.26 0 0 1-.457.032c-.542 0-.75-.42-.75-.917v-.255c0-.504.208-.905.75-.905.121 0 .299.014.457.033.059.009.073.028.073.069v.027c0 .037-.026.053-.064.053h-.015a3.394 3.394 0 0 0-.451-.034c-.433 0-.584.298-.584.757v.255c0 .459.151.769.584.769.126 0 .272-.012.451-.033h.015c.038 0 .064.015.064.053v.028c0 .041-.014.059-.073.068zm1.752-1.06h-.293c-.572 0-.766.111-.766.433v.049c0 .309.102.462.596.462.19 0 .385-.027.463-.044v-.9zm.108 1.013a2.24 2.24 0 0 1-.571.079c-.576 0-.766-.196-.766-.61v-.049c0-.398.247-.585.936-.585h.293v-.135c0-.394-.111-.55-.479-.55-.25 0-.359.014-.538.034-.045.004-.087-.012-.087-.056v-.024c0-.041.03-.06.087-.069.161-.019.288-.033.538-.033.511 0 .644.286.644.698v1.219c0 .048-.011.07-.057.081zm1.487.069c-.049.008-.173.01-.288.01-.333 0-.519-.109-.519-.484v-2c0-.038.033-.072.074-.072h.029c.038 0 .069.034.069.072v.425h.635c.042 0 .074.024.074.061v.034c0 .037-.032.06-.074.06h-.635v1.42c0 .292.094.336.347.336h.288c.058 0 .081.017.081.05v.026c0 .031-.013.053-.081.062zm.686.01h-.022a.073.073 0 0 1-.073-.072v-1.914c0-.039.034-.074.073-.074h.022c.038 0 .073.035.073.074v1.914c0 .04-.035.072-.073.072zm0-2.434h-.022a.073.073 0 0 1-.073-.072v-.282c0-.038.034-.071.073-.071h.022c.038 0 .073.033.073.071v.282c0 .04-.035.072-.073.072zm2.072 1.263c0-.467-.172-.757-.613-.757-.443 0-.616.29-.616.757v.266c0 .468.173.757.616.757.441 0 .613-.289.613-.757v-.266zm-.613 1.172c-.521 0-.781-.333-.781-.906v-.266c0-.573.26-.906.781-.906.518 0 .778.333.778.906v.266c0 .573-.26.906-.778.906zm2.707-.001h-.038c-.038 0-.065-.032-.065-.072v-1.307c0-.479-.22-.54-.473-.54h-.163c-.254 0-.474.061-.474.54v1.307c0 .04-.026.072-.064.072h-.038c-.039 0-.065-.032-.065-.072v-1.307c0-.637.38-.699.641-.699h.163c.262 0 .639.062.639.699v1.307c0 .04-.026.072-.063.072zm2.953-1.092h-.294c-.57 0-.764.111-.764.433v.049c0 .309.103.462.596.462.189 0 .385-.027.462-.044v-.9zm.109 1.013a2.247 2.247 0 0 1-.571.079c-.576 0-.767-.196-.767-.61v-.049c0-.398.247-.585.935-.585h.294v-.135c0-.394-.111-.55-.478-.55-.251 0-.361.014-.538.034-.046.004-.088-.012-.088-.056v-.024c0-.041.032-.06.088-.069.158-.019.287-.033.538-.033.512 0 .644.286.644.698v1.219c0 .048-.012.07-.057.081zm2.041.079h-.039c-.038 0-.065-.032-.065-.072v-1.307c0-.479-.219-.54-.473-.54h-.163c-.253 0-.473.061-.473.54v1.307c0 .04-.026.072-.064.072h-.039c-.038 0-.065-.032-.065-.072v-1.307c0-.637.38-.699.641-.699h.163c.262 0 .64.062.64.699v1.307c0 .04-.026.072-.063.072zm1.88-1.882a3.192 3.192 0 0 0-.525-.047c-.418 0-.577.256-.577.757v.253c0 .489.153.771.577.771.18 0 .389-.024.525-.048v-1.686zm.111 1.81a3.407 3.407 0 0 1-.636.072c-.524 0-.743-.373-.743-.919v-.253c0-.599.25-.905.743-.905.146 0 .375.022.525.055v-.747c0-.036.026-.071.064-.071h.04c.037 0 .062.035.062.071v2.627c0 .044-.011.06-.055.07zm3.523-2.612h-.81v2.589c0 .039-.026.074-.065.074h-.037c-.038 0-.065-.035-.065-.074V28.72h-.814c-.041 0-.071-.019-.071-.056v-.036c0-.036.03-.063.071-.063h1.791c.042 0 .073.027.073.063v.036c0 .037-.031.056-.073.056zm1.03.755h-.119c-.193 0-.294.022-.412.09v1.767c0 .04-.027.072-.064.072h-.038c-.037 0-.06-.032-.06-.072v-1.798c0-.031.018-.051.034-.059a.946.946 0 0 1 .545-.148c.17 0 .193.018.193.068v.018c0 .046-.027.062-.079.062zm1.608.837h-.291c-.572 0-.766.111-.766.433v.049c0 .309.103.462.595.462a2.5 2.5 0 0 0 .462-.044v-.9zm.109 1.013c-.18.049-.381.079-.571.079-.575 0-.766-.196-.766-.61v-.049c0-.398.248-.585.937-.585h.291v-.135c0-.394-.109-.55-.478-.55-.25 0-.359.014-.538.034-.045.004-.087-.012-.087-.056v-.024c0-.041.032-.06.087-.069.162-.019.288-.033.538-.033.512 0 .644.286.644.698v1.219c0 .048-.011.07-.057.081zm.814.079h-.022a.074.074 0 0 1-.073-.072v-1.914c0-.039.035-.074.073-.074h.022c.038 0 .072.035.072.074v1.914c0 .04-.034.072-.072.072zm0-2.434h-.022a.074.074 0 0 1-.073-.072v-.282c0-.038.035-.071.073-.071h.022c.038 0 .072.033.072.071v.282c0 .04-.034.072-.072.072zm2.094 2.434h-.037c-.038 0-.065-.032-.065-.072v-1.307c0-.479-.218-.54-.473-.54h-.162c-.254 0-.475.061-.475.54v1.307c0 .04-.026.072-.063.072h-.038c-.039 0-.064-.032-.064-.072v-1.307c0-.637.378-.699.64-.699h.162c.261 0 .64.062.64.699v1.307c0 .04-.026.072-.065.072zm.803 0h-.022a.073.073 0 0 1-.073-.072v-1.914c0-.039.033-.074.073-.074h.022c.038 0 .072.035.072.074v1.914c0 .04-.034.072-.072.072zm0-2.434h-.022a.073.073 0 0 1-.073-.072v-.282c0-.038.033-.071.073-.071h.022c.038 0 .072.033.072.071v.282c0 .04-.034.072-.072.072zm2.093 2.434h-.037c-.039 0-.065-.032-.065-.072v-1.307c0-.479-.218-.54-.474-.54h-.162c-.253 0-.474.061-.474.54v1.307c0 .04-.025.072-.064.072h-.037c-.039 0-.065-.032-.065-.072v-1.307c0-.637.378-.699.64-.699h.162c.262 0 .641.062.641.699v1.307c0 .04-.027.072-.065.072zm1.882-1.882c-.136-.021-.303-.047-.485-.047-.423 0-.618.138-.618.757v.258c0 .662.266.766.618.766.121 0 .36-.022.485-.055v-1.679zm-.52 2.601c-.256 0-.502-.031-.58-.046-.056-.013-.07-.031-.07-.071v-.019c0-.04.026-.058.064-.058h.015c.095.015.344.046.571.046.4 0 .525-.099.525-.59v-.04a2.245 2.245 0 0 1-.49.059c-.341 0-.784-.09-.784-.914v-.258c0-.67.261-.905.784-.905.208 0 .474.044.595.071.045.012.056.027.056.072v1.915c0 .604-.237.738-.686.738z" stroke="#3E3935" stroke-width=".145" fill="none"/></svg>
